<svg id="svg" version="1.1" width="400" height="175.16778523489933" viewBox="0 0 400 175.16778523489933" xmlns="http://www.w3.org/2000/svg" xmlns:xlink="http://www.w3.org/1999/xlink" ><g id="svgg"><path id="path0" d="M59.182 5.388 C 58.721 5.916,57.849 8.150,53.147 20.850 C 52.629 22.247,52.092 23.666,51.953 24.004 C 51.733 24.539,49.745 29.837,49.127 31.537 C 49.005 31.875,48.399 33.491,47.782 35.129 C 47.164 36.767,45.656 40.788,44.431 44.065 C 43.205 47.341,42.000 50.534,41.752 51.161 C 41.504 51.787,41.160 52.694,40.988 53.176 C 40.815 53.657,40.506 54.485,40.301 55.015 C 40.096 55.545,39.503 57.122,38.982 58.519 C 38.461 59.917,37.514 62.440,36.877 64.126 C 36.241 65.813,35.652 67.389,35.568 67.630 C 35.485 67.871,35.054 69.014,34.610 70.171 C 33.920 71.968,33.132 74.063,30.920 79.982 C 29.851 82.841,29.246 84.450,28.910 85.326 C 28.587 86.167,28.080 87.523,26.155 92.685 C 25.922 93.311,25.545 94.297,25.318 94.875 C 25.091 95.453,24.375 97.346,23.727 99.080 C 23.079 100.815,22.043 103.574,21.425 105.212 C 20.807 106.851,20.042 108.901,19.726 109.768 C 19.410 110.635,18.937 111.878,18.674 112.529 C 18.411 113.181,18.129 113.930,18.047 114.194 C 17.965 114.458,17.728 115.107,17.521 115.637 C 17.084 116.757,16.704 117.773,15.949 119.842 C 15.650 120.661,15.098 122.120,14.723 123.084 C 14.347 124.047,13.754 125.624,13.404 126.588 C 13.054 127.551,12.620 128.695,12.439 129.128 C 12.258 129.562,11.865 130.587,11.566 131.406 C 10.823 133.442,9.211 137.766,8.757 138.940 C 7.830 141.337,7.705 141.791,7.906 142.032 C 8.196 142.381,31.574 142.384,31.864 142.035 C 31.971 141.906,32.184 141.453,32.338 141.027 C 33.025 139.127,37.005 127.640,37.584 125.887 C 37.711 125.502,38.341 123.688,38.983 121.857 C 39.625 120.026,40.262 118.167,40.398 117.725 C 40.900 116.089,37.983 116.257,66.877 116.204 C 94.933 116.154,93.531 116.099,94.000 117.260 C 94.266 117.919,96.722 124.943,97.324 126.763 C 97.534 127.401,99.349 132.633,101.122 137.714 C 101.509 138.822,101.906 140.004,102.005 140.342 C 102.234 141.121,102.664 141.968,102.915 142.135 C 103.338 142.415,126.439 142.291,126.675 142.007 C 126.933 141.696,126.992 141.900,125.543 138.064 C 124.906 136.378,123.991 133.933,123.510 132.633 C 123.028 131.332,122.528 130.031,122.398 129.742 C 122.268 129.452,122.001 128.743,121.805 128.165 C 121.608 127.587,121.198 126.483,120.894 125.712 C 120.589 124.941,120.115 123.679,119.841 122.908 C 119.566 122.138,119.096 120.876,118.796 120.105 C 118.495 119.334,118.126 118.349,117.976 117.915 C 117.825 117.481,117.424 116.417,117.083 115.550 C 116.743 114.682,116.192 113.224,115.859 112.308 C 115.105 110.234,114.804 109.429,113.797 106.789 C 113.357 105.633,112.569 103.544,112.048 102.146 C 111.527 100.749,110.935 99.172,110.731 98.642 C 110.528 98.112,109.936 96.535,109.415 95.138 C 108.893 93.741,107.947 91.218,107.311 89.531 C 106.675 87.845,106.051 86.189,105.925 85.852 C 105.798 85.515,105.412 84.490,105.067 83.574 C 103.738 80.046,101.569 74.266,100.661 71.835 C 100.139 70.438,99.546 68.861,99.343 68.331 C 99.140 67.801,98.548 66.224,98.028 64.827 C 97.508 63.430,96.128 59.763,94.961 56.680 C 93.795 53.596,92.416 49.930,91.896 48.533 C 91.377 47.135,90.801 45.598,90.616 45.116 C 90.431 44.634,89.867 43.136,89.362 41.787 C 88.858 40.438,88.266 38.861,88.047 38.283 C 87.829 37.705,87.210 36.049,86.672 34.604 C 86.134 33.158,84.740 29.452,83.574 26.369 C 82.408 23.285,80.580 18.436,79.511 15.594 C 78.442 12.751,77.183 9.404,76.714 8.157 C 76.245 6.910,75.742 5.708,75.596 5.485 L 75.331 5.081 67.391 5.081 C 60.047 5.081,59.430 5.104,59.182 5.388 M146.046 5.470 C 145.600 6.107,145.650 11.198,146.108 11.763 L 146.443 12.177 159.689 12.225 C 173.599 12.276,174.036 12.255,174.121 11.552 C 174.195 10.931,172.292 5.759,171.853 5.388 C 171.515 5.102,170.635 5.081,158.904 5.081 L 146.319 5.081 146.046 5.470 M238.420 5.388 C 238.022 5.844,237.883 6.172,236.979 8.790 C 236.075 11.411,236.033 11.922,236.706 12.109 C 237.728 12.391,263.587 12.281,264.000 11.992 C 264.459 11.670,264.618 5.731,264.179 5.291 C 263.791 4.903,238.761 4.997,238.420 5.388 M296.846 5.282 C 296.437 5.692,296.545 11.332,296.966 11.558 C 297.632 11.914,373.531 11.799,373.669 11.442 C 373.848 10.975,372.997 10.417,370.113 9.111 C 366.006 7.251,361.648 6.062,356.461 5.386 C 354.406 5.118,297.110 5.019,296.846 5.282 M146.694 12.736 C 145.711 12.932,145.231 18.739,146.108 19.823 L 146.443 20.237 161.332 20.283 C 178.789 20.338,177.642 20.484,176.791 18.313 C 176.601 17.829,176.119 16.511,175.719 15.383 C 174.648 12.364,176.553 12.706,160.691 12.680 C 153.209 12.668,146.910 12.693,146.694 12.736 M236.243 12.736 C 235.584 12.865,235.282 13.416,234.230 16.404 C 233.059 19.730,233.031 19.917,233.651 20.153 C 234.495 20.474,263.536 20.376,264.000 20.051 C 264.379 19.786,264.389 19.690,264.389 16.470 C 264.389 13.249,264.379 13.153,264.000 12.888 C 263.630 12.629,237.519 12.487,236.243 12.736 M296.934 13.330 C 296.528 13.566,296.465 18.570,296.865 18.901 C 297.039 19.046,308.392 19.087,339.834 19.054 L 382.567 19.010 382.621 18.628 C 382.715 17.968,378.771 14.135,377.311 13.468 C 376.489 13.093,297.573 12.957,296.934 13.330 M296.903 20.775 C 296.527 21.151,296.494 25.952,296.865 26.260 C 297.039 26.405,309.054 26.445,342.375 26.413 L 387.648 26.369 387.702 25.895 C 387.757 25.424,387.554 25.055,385.676 22.202 C 385.245 21.548,384.669 20.898,384.396 20.757 C 383.612 20.351,297.308 20.369,296.903 20.775 M146.529 20.851 C 145.679 21.194,145.335 26.928,146.108 27.882 L 146.443 28.296 163.009 28.296 C 181.860 28.296,180.371 28.422,179.885 26.869 C 179.739 26.401,179.413 25.466,179.161 24.792 C 178.909 24.117,178.578 23.211,178.425 22.777 C 177.974 21.499,177.671 21.020,177.203 20.842 C 176.641 20.629,147.060 20.637,146.529 20.851 M233.264 20.796 C 232.647 20.917,232.428 21.324,231.282 24.486 C 230.136 27.648,230.103 27.930,230.844 28.211 C 231.575 28.489,263.309 28.437,263.863 28.157 L 264.301 27.936 264.351 24.612 C 264.398 21.397,264.387 21.278,264.025 20.981 C 263.671 20.692,234.687 20.517,233.264 20.796 M296.903 28.133 C 296.548 28.488,296.490 33.959,296.837 34.306 C 297.141 34.610,318.540 34.610,318.844 34.306 C 319.281 33.869,319.124 28.452,318.664 28.131 C 318.071 27.715,297.319 27.717,296.903 28.133 M360.002 28.077 C 359.599 28.378,359.745 28.538,361.465 29.666 C 362.837 30.566,363.803 31.476,365.758 33.706 L 366.470 34.518 378.636 34.473 L 390.802 34.428 390.853 33.903 C 390.981 32.583,389.279 28.320,388.506 28.027 C 387.790 27.754,360.369 27.803,360.002 28.077 M146.529 28.911 C 145.679 29.253,145.335 34.988,146.108 35.942 L 146.443 36.356 164.499 36.356 C 185.212 36.356,183.391 36.515,182.773 34.753 C 182.575 34.189,182.165 33.057,181.861 32.238 C 181.557 31.419,181.246 30.543,181.169 30.292 C 180.911 29.452,180.651 29.123,180.091 28.928 C 179.410 28.690,147.118 28.674,146.529 28.911 M230.311 28.861 C 229.743 29.001,229.582 29.212,229.172 30.360 C 228.554 32.086,228.099 33.311,227.736 34.222 C 227.287 35.349,227.366 36.128,227.946 36.288 C 228.975 36.571,263.588 36.459,264.000 36.171 C 264.379 35.905,264.389 35.810,264.389 32.589 C 264.389 29.368,264.379 29.272,264.000 29.007 C 263.619 28.741,231.369 28.601,230.311 28.861 M296.903 36.193 C 296.548 36.548,296.490 42.018,296.837 42.365 C 297.141 42.669,318.540 42.669,318.844 42.365 C 319.281 41.928,319.124 36.512,318.664 36.190 C 318.071 35.775,297.319 35.777,296.903 36.193 M367.806 36.034 C 367.486 36.163,367.538 37.001,367.920 37.894 C 368.104 38.323,368.466 39.453,368.725 40.405 C 368.984 41.358,369.277 42.236,369.376 42.357 C 369.633 42.669,391.944 42.677,392.256 42.365 C 392.765 41.856,391.994 36.928,391.308 36.312 L 390.870 35.918 379.447 35.931 C 373.165 35.939,367.926 35.985,367.806 36.034 M146.358 37.001 C 145.645 37.345,145.437 43.173,146.108 44.002 L 146.443 44.415 165.712 44.462 C 178.152 44.492,185.143 44.447,185.438 44.335 C 186.011 44.117,186.038 43.561,185.539 42.275 C 185.342 41.769,185.031 40.939,184.846 40.432 C 183.789 37.526,183.643 37.233,183.147 37.021 C 182.492 36.740,146.937 36.721,146.358 37.001 M227.326 36.960 C 226.795 37.176,226.632 37.440,226.024 39.071 C 225.719 39.890,225.358 40.837,225.222 41.174 C 224.320 43.414,224.250 44.088,224.891 44.332 C 225.738 44.654,263.535 44.556,264.000 44.230 C 264.514 43.870,264.615 37.570,264.114 37.069 C 263.808 36.763,228.073 36.658,227.326 36.960 M67.898 42.269 C 68.065 42.678,68.306 43.329,68.433 43.714 C 68.559 44.100,69.024 45.440,69.466 46.693 C 69.908 47.946,70.540 49.759,70.871 50.723 C 71.201 51.686,71.950 53.855,72.535 55.541 C 73.121 57.227,73.836 59.317,74.124 60.184 C 74.412 61.051,74.722 61.919,74.812 62.111 C 74.903 62.304,75.138 62.935,75.336 63.513 C 75.534 64.091,75.964 65.353,76.293 66.316 C 76.622 67.280,77.375 69.448,77.967 71.134 C 78.559 72.821,79.273 74.871,79.554 75.690 C 79.835 76.509,80.426 78.204,80.868 79.457 C 81.309 80.710,81.777 82.050,81.908 82.435 C 82.435 83.989,85.028 91.434,85.355 92.335 C 85.863 93.729,85.940 94.274,85.656 94.454 C 85.202 94.741,49.134 94.651,48.894 94.363 C 48.657 94.078,48.733 93.793,50.020 90.145 C 50.462 88.892,51.054 87.197,51.335 86.378 C 51.857 84.860,53.671 79.642,54.777 76.478 C 55.114 75.515,55.659 73.938,55.989 72.974 C 56.319 72.011,56.950 70.197,57.392 68.944 C 57.834 67.692,58.302 66.351,58.432 65.966 C 58.562 65.580,59.148 63.885,59.736 62.199 C 60.323 60.512,61.075 58.344,61.407 57.381 C 61.738 56.417,62.210 55.077,62.455 54.402 C 62.701 53.728,63.292 52.032,63.770 50.635 C 64.248 49.238,65.001 47.070,65.442 45.817 C 65.883 44.564,66.353 43.200,66.485 42.786 C 66.951 41.325,67.438 41.147,67.898 42.269 M296.903 44.253 C 296.548 44.607,296.490 50.078,296.837 50.425 C 297.141 50.729,318.540 50.729,318.844 50.425 C 319.281 49.988,319.124 44.572,318.664 44.250 C 318.071 43.834,297.319 43.837,296.903 44.253 M369.903 44.250 C 369.444 44.572,369.287 49.988,369.724 50.425 C 369.883 50.584,372.651 50.635,381.106 50.635 L 392.279 50.635 392.479 50.260 C 392.838 49.589,392.753 44.741,392.375 44.323 C 391.941 43.844,370.583 43.774,369.903 44.250 M146.358 45.059 C 145.645 45.406,145.437 51.233,146.108 52.061 L 146.443 52.475 156.441 52.523 C 167.671 52.577,167.132 52.639,167.161 51.292 C 167.188 50.045,167.386 50.001,168.033 51.095 C 168.366 51.658,168.835 52.217,169.076 52.340 C 169.707 52.660,188.403 52.579,188.727 52.254 C 188.977 52.004,188.735 50.970,187.916 48.795 C 187.662 48.121,187.296 47.124,187.103 46.580 C 186.457 44.759,188.768 44.945,166.385 44.908 C 152.915 44.885,146.618 44.933,146.358 45.059 M224.348 45.020 C 223.905 45.200,223.670 45.492,223.427 46.167 C 223.323 46.456,223.034 47.245,222.786 47.919 C 222.537 48.594,222.120 49.765,221.858 50.522 L 221.383 51.899 221.793 52.231 C 222.183 52.547,222.632 52.562,231.163 52.562 C 241.436 52.562,241.127 52.603,241.617 51.161 C 242.482 48.617,243.014 48.546,243.014 50.974 C 243.014 52.595,242.152 52.468,253.536 52.523 C 262.342 52.565,263.612 52.538,263.975 52.300 C 264.512 51.948,264.634 45.649,264.114 45.129 C 263.808 44.823,225.095 44.717,224.348 45.020 M296.903 52.312 C 296.548 52.667,296.490 58.137,296.837 58.484 C 297.141 58.788,318.540 58.788,318.844 58.484 C 319.226 58.102,319.129 52.685,318.733 52.327 C 318.256 51.895,297.334 51.881,296.903 52.312 M369.370 52.343 C 369.162 52.522,368.856 53.222,368.638 54.017 C 368.432 54.769,368.028 55.939,367.740 56.616 C 367.451 57.293,367.240 58.019,367.270 58.227 L 367.324 58.607 379.180 58.652 L 391.037 58.697 391.370 58.274 C 391.951 57.535,392.616 52.844,392.204 52.389 C 391.739 51.875,369.967 51.832,369.370 52.343 M146.358 53.120 C 145.645 53.464,145.437 59.292,146.108 60.121 L 146.443 60.534 156.441 60.582 C 166.278 60.630,166.445 60.625,166.794 60.276 C 167.335 59.735,167.338 53.803,166.798 53.263 C 166.393 52.859,147.177 52.724,146.358 53.120 M169.335 53.332 C 169.075 53.729,169.079 53.823,169.391 54.607 C 170.150 56.510,170.478 57.396,170.483 57.559 C 170.487 57.654,170.642 58.046,170.828 58.432 C 171.014 58.817,171.169 59.257,171.172 59.409 C 171.176 59.561,171.382 59.876,171.630 60.110 L 172.082 60.534 181.591 60.584 C 193.460 60.646,192.378 61.059,190.890 57.030 C 190.534 56.067,190.129 54.913,189.990 54.467 C 189.498 52.893,190.298 53.007,179.314 52.952 L 169.615 52.904 169.335 53.332 M221.337 53.091 C 220.915 53.261,220.748 53.602,219.671 56.505 C 217.987 61.040,216.895 60.534,228.385 60.534 L 237.788 60.534 238.110 60.137 C 238.287 59.919,238.565 59.367,238.729 58.911 C 239.211 57.566,239.640 56.406,240.115 55.161 C 240.649 53.760,240.671 53.335,240.222 53.094 C 239.797 52.867,221.901 52.864,221.337 53.091 M243.403 53.186 C 242.911 53.530,242.790 59.548,243.262 60.194 C 243.609 60.669,263.263 60.826,263.975 60.359 C 264.512 60.008,264.634 53.708,264.114 53.188 C 263.698 52.772,243.996 52.770,243.403 53.186 M296.903 60.372 C 296.548 60.726,296.490 66.197,296.837 66.544 C 297.141 66.848,318.540 66.848,318.844 66.544 C 319.226 66.161,319.129 60.745,318.733 60.386 C 318.256 59.955,297.334 59.941,296.903 60.372 M366.010 60.354 C 365.769 60.487,365.031 61.198,364.370 61.932 C 362.951 63.508,361.812 64.401,359.937 65.407 C 357.462 66.734,356.709 66.661,373.441 66.711 C 390.214 66.762,388.617 66.898,389.398 65.353 C 389.791 64.576,390.562 62.284,390.791 61.213 C 391.041 60.040,391.667 60.096,378.393 60.103 C 368.539 60.109,366.371 60.153,366.010 60.354 M146.358 61.179 C 145.645 61.524,145.437 67.352,146.108 68.180 L 146.443 68.594 156.547 68.594 C 166.347 68.594,166.659 68.584,166.900 68.254 C 167.340 67.652,167.254 61.778,166.798 61.323 C 166.393 60.918,147.177 60.783,146.358 61.179 M172.324 61.254 C 171.995 61.582,172.002 61.610,173.020 64.214 C 173.434 65.274,173.830 66.338,173.900 66.579 C 174.530 68.758,174.137 68.683,184.845 68.663 C 195.897 68.643,195.208 68.849,194.119 65.878 C 193.819 65.059,193.470 64.074,193.344 63.688 C 192.825 62.108,192.387 61.317,191.934 61.145 C 191.074 60.818,172.657 60.920,172.324 61.254 M218.170 61.407 C 217.885 61.647,217.569 62.139,217.467 62.502 C 217.365 62.865,217.073 63.714,216.820 64.389 C 215.471 67.979,215.428 68.243,216.146 68.517 C 216.977 68.832,234.447 68.654,234.942 68.324 C 235.209 68.147,235.559 67.485,235.960 66.397 C 236.296 65.485,236.766 64.227,237.005 63.601 C 238.091 60.745,238.883 60.972,227.859 60.972 L 218.687 60.972 218.170 61.407 M243.364 61.323 C 243.040 61.647,243.014 61.905,243.016 64.783 C 243.019 68.131,243.036 68.215,243.773 68.495 C 244.530 68.783,263.289 68.745,263.863 68.455 L 264.301 68.234 264.349 64.882 C 264.390 62.007,264.357 61.491,264.117 61.251 C 263.632 60.766,243.853 60.834,243.364 61.323 M296.903 68.431 C 296.439 68.895,296.497 75.082,296.968 75.334 C 297.202 75.460,310.719 75.503,340.175 75.472 L 383.041 75.427 383.943 74.446 C 385.976 72.232,387.977 68.528,387.283 68.262 C 386.555 67.983,297.184 68.150,296.903 68.431 M146.358 69.239 C 145.827 69.496,145.778 69.808,145.775 72.979 C 145.774 75.240,145.826 75.863,146.046 76.177 L 146.319 76.566 156.552 76.566 C 166.490 76.566,166.791 76.556,166.967 76.227 C 167.339 75.531,167.197 69.782,166.798 69.382 C 166.393 68.978,147.177 68.843,146.358 69.239 M175.488 69.303 C 175.116 69.675,175.135 70.129,175.558 70.959 C 175.751 71.337,175.909 71.726,175.909 71.823 C 175.909 72.242,177.537 76.148,177.794 76.347 C 178.312 76.746,197.399 76.657,197.614 76.254 C 197.826 75.858,195.743 70.041,195.192 69.490 C 194.683 68.981,175.987 68.804,175.488 69.303 M215.487 69.226 C 215.029 69.395,214.790 69.889,213.710 72.887 C 213.519 73.417,213.264 74.087,213.144 74.377 C 212.170 76.713,211.545 76.566,222.441 76.566 L 231.787 76.566 232.141 76.186 C 232.335 75.977,232.622 75.445,232.778 75.003 C 233.120 74.035,233.407 73.264,233.857 72.098 C 234.530 70.357,234.680 69.718,234.486 69.411 C 234.272 69.071,216.381 68.897,215.487 69.226 M243.714 69.154 C 243.083 69.379,243.014 69.747,243.014 72.893 C 243.014 75.667,243.047 76.016,243.334 76.276 C 243.749 76.651,263.807 76.728,264.179 76.356 C 264.528 76.006,264.470 69.663,264.114 69.307 C 263.840 69.034,244.458 68.888,243.714 69.154 M296.837 77.127 C 296.488 77.476,296.547 83.644,296.903 84.000 C 297.281 84.378,370.612 84.425,372.060 84.048 C 374.437 83.429,381.927 77.626,381.059 77.077 C 380.656 76.821,297.093 76.871,296.837 77.127 M146.358 77.299 C 145.827 77.555,145.778 77.867,145.775 81.039 C 145.774 83.299,145.826 83.923,146.046 84.236 L 146.319 84.625 156.552 84.625 C 166.490 84.625,166.791 84.616,166.967 84.287 C 167.339 83.591,167.197 77.841,166.798 77.442 C 166.393 77.037,147.177 76.902,146.358 77.299 M178.677 77.211 C 178.166 77.345,178.151 77.907,178.628 79.100 C 178.881 79.732,179.156 80.465,179.239 80.729 C 179.649 82.040,180.476 83.997,180.743 84.293 C 181.158 84.751,200.059 84.819,200.437 84.364 C 200.692 84.057,200.631 83.738,200.007 82.085 C 199.753 81.410,199.471 80.627,199.381 80.344 C 198.710 78.235,198.307 77.466,197.774 77.280 C 197.245 77.096,179.360 77.031,178.677 77.211 M212.580 77.269 C 212.163 77.437,211.758 78.112,211.389 79.256 C 211.260 79.655,210.948 80.534,210.695 81.209 C 209.827 83.521,209.683 84.102,209.910 84.376 C 210.128 84.639,228.243 84.769,228.912 84.513 C 229.256 84.381,229.589 83.645,230.764 80.427 C 231.755 77.712,231.753 77.726,231.236 77.364 C 230.793 77.054,213.335 76.965,212.580 77.269 M243.714 77.213 C 243.085 77.438,243.014 77.811,243.014 80.853 C 243.014 83.279,243.065 83.921,243.286 84.236 L 243.559 84.625 253.764 84.625 C 261.467 84.625,264.020 84.574,264.179 84.415 C 264.528 84.066,264.470 77.723,264.114 77.367 C 263.840 77.093,244.458 76.947,243.714 77.213 M146.358 85.358 C 145.827 85.615,145.778 85.927,145.775 89.098 C 145.774 91.359,145.826 91.982,146.046 92.296 L 146.319 92.685 156.458 92.685 C 165.442 92.685,166.629 92.654,166.873 92.410 C 167.341 91.942,167.276 85.979,166.798 85.502 C 166.393 85.097,147.177 84.962,146.358 85.358 M181.647 85.340 C 181.180 85.612,181.268 86.158,182.145 88.419 C 182.587 89.561,183.066 90.869,183.209 91.326 C 183.659 92.765,183.047 92.685,193.542 92.685 C 198.668 92.685,202.987 92.637,203.139 92.579 C 203.522 92.432,203.496 91.458,203.084 90.440 C 202.901 89.988,202.578 89.146,202.366 88.568 C 201.511 86.240,201.184 85.585,200.771 85.373 C 200.228 85.093,182.124 85.063,181.647 85.340 M209.562 85.458 C 209.095 85.696,208.897 85.959,208.670 86.640 C 208.162 88.164,207.626 89.687,207.181 90.870 C 206.436 92.847,205.608 92.685,216.445 92.685 L 225.782 92.685 226.151 92.291 C 226.354 92.074,226.812 91.108,227.169 90.145 C 228.869 85.551,228.852 85.624,228.308 85.332 C 227.646 84.978,210.274 85.095,209.562 85.458 M243.586 85.364 C 242.939 85.676,242.731 91.662,243.342 92.396 C 243.653 92.770,263.807 92.847,264.179 92.475 C 264.528 92.125,264.470 85.782,264.114 85.426 C 263.772 85.084,244.288 85.025,243.586 85.364 M296.837 85.887 C 296.490 86.234,296.548 91.705,296.903 92.059 C 297.147 92.304,298.370 92.335,307.726 92.335 C 319.852 92.335,318.946 92.462,319.103 90.729 C 319.256 89.040,317.812 89.181,334.900 89.177 C 349.854 89.174,356.305 88.986,358.512 88.492 C 358.956 88.392,360.068 88.190,360.984 88.043 C 364.082 87.544,367.672 86.235,367.040 85.835 C 366.640 85.582,297.091 85.633,296.837 85.887 M146.386 93.420 C 145.803 93.751,145.779 93.893,145.776 96.982 C 145.774 99.402,145.825 100.039,146.046 100.355 L 146.319 100.745 156.458 100.745 C 165.442 100.745,166.629 100.713,166.873 100.469 C 167.374 99.969,167.274 93.844,166.759 93.483 C 166.261 93.135,146.995 93.075,146.386 93.420 M184.625 93.400 C 184.174 93.663,184.239 94.063,185.085 96.237 C 185.506 97.319,185.910 98.401,185.983 98.642 C 186.182 99.300,186.792 100.464,187.014 100.611 C 187.254 100.769,222.544 100.789,222.955 100.632 C 223.295 100.501,223.615 99.799,224.806 96.567 C 226.173 92.860,227.098 93.210,215.949 93.213 C 206.257 93.216,206.300 93.212,205.992 94.174 C 205.607 95.379,204.952 95.637,204.645 94.706 C 204.535 94.372,204.207 93.899,203.917 93.654 L 203.390 93.211 194.161 93.216 C 188.219 93.219,184.823 93.285,184.625 93.400 M243.429 93.655 L 242.985 94.100 243.043 97.174 C 243.096 99.977,243.131 100.270,243.441 100.496 C 243.904 100.834,263.842 100.871,264.179 100.534 C 264.582 100.131,264.465 93.614,264.050 93.392 C 263.828 93.273,260.295 93.211,253.792 93.211 L 243.874 93.211 243.429 93.655 M296.837 93.947 C 296.490 94.294,296.548 99.764,296.903 100.119 C 297.319 100.535,318.071 100.537,318.664 100.121 C 319.124 99.800,319.281 94.384,318.844 93.947 C 318.540 93.643,297.141 93.643,296.837 93.947 M146.386 101.480 C 145.803 101.811,145.779 101.952,145.776 105.081 C 145.773 107.872,145.800 108.130,146.124 108.454 C 146.609 108.939,166.391 109.011,166.873 108.529 C 167.374 108.028,167.274 101.903,166.759 101.543 C 166.261 101.194,146.995 101.134,146.386 101.480 M187.563 101.618 C 187.185 102.035,189.303 108.068,189.998 108.555 C 190.466 108.882,219.238 108.932,219.952 108.607 C 220.356 108.423,220.820 107.473,221.607 105.212 C 221.708 104.923,221.991 104.135,222.236 103.460 C 222.774 101.980,222.791 101.687,222.351 101.452 C 221.610 101.055,187.926 101.216,187.563 101.618 M243.578 101.543 C 243.010 101.941,242.965 108.322,243.528 108.623 C 244.044 108.899,263.901 108.871,264.179 108.594 C 264.582 108.190,264.465 101.674,264.050 101.452 C 263.436 101.123,244.054 101.209,243.578 101.543 M296.837 102.006 C 296.490 102.353,296.548 107.824,296.903 108.178 C 297.319 108.594,318.071 108.597,318.664 108.181 C 319.124 107.859,319.281 102.443,318.844 102.006 C 318.540 101.702,297.141 101.702,296.837 102.006 M146.474 109.451 C 145.844 109.677,145.773 110.048,145.773 113.130 C 145.773 115.929,145.800 116.190,146.124 116.513 C 146.609 116.999,166.391 117.070,166.873 116.588 C 167.318 116.143,167.279 110.028,166.828 109.620 C 166.511 109.333,147.251 109.174,146.474 109.451 M190.758 109.519 C 190.268 109.804,190.901 112.066,192.522 115.831 C 192.997 116.934,192.147 116.864,205.107 116.864 C 218.050 116.864,217.224 116.952,217.776 115.512 C 217.990 114.955,218.245 114.301,218.342 114.060 C 219.641 110.854,219.883 109.785,219.372 109.511 C 218.907 109.262,191.185 109.270,190.758 109.519 M243.578 109.603 C 243.064 109.963,242.964 116.088,243.464 116.588 C 243.826 116.951,263.819 117.013,264.179 116.654 C 264.582 116.250,264.465 109.733,264.050 109.511 C 263.436 109.182,244.054 109.269,243.578 109.603 M296.837 110.066 C 296.397 110.506,296.557 116.619,297.017 116.941 C 297.543 117.310,317.804 117.353,318.528 116.988 L 318.966 116.766 319.014 113.553 C 319.047 111.331,319.000 110.264,318.861 110.097 C 318.585 109.765,297.169 109.734,296.837 110.066 M146.124 117.740 C 145.797 118.066,145.773 118.324,145.773 121.507 C 145.773 124.690,145.797 124.947,146.124 125.274 C 146.648 125.798,166.386 125.826,166.859 125.304 C 167.318 124.796,167.291 118.099,166.828 117.679 C 166.281 117.184,146.621 117.242,146.124 117.740 M193.640 117.600 C 193.330 117.910,193.340 117.953,194.484 121.049 C 195.767 124.518,195.954 124.892,196.516 125.106 C 197.164 125.353,213.269 125.328,213.814 125.079 C 214.352 124.834,214.422 124.695,215.611 121.507 C 216.738 118.487,216.855 118.011,216.556 117.651 C 216.265 117.301,193.988 117.251,193.640 117.600 M243.578 117.662 C 243.197 117.929,243.189 118.014,243.189 121.507 C 243.189 124.999,243.197 125.085,243.578 125.351 C 244.054 125.685,263.436 125.772,264.050 125.443 C 264.369 125.272,264.389 125.040,264.389 121.507 C 264.389 117.974,264.369 117.741,264.050 117.571 C 263.436 117.242,244.054 117.329,243.578 117.662 M297.017 118.713 C 296.641 118.976,296.627 119.089,296.627 121.857 C 296.627 124.625,296.641 124.738,297.017 125.001 C 297.543 125.370,317.805 125.413,318.528 125.047 L 318.966 124.825 318.966 121.857 L 318.966 118.889 318.528 118.667 C 317.805 118.301,297.543 118.345,297.017 118.713 M146.474 126.271 C 145.845 126.496,145.773 126.869,145.773 129.917 C 145.773 132.230,145.830 132.994,146.022 133.256 C 146.383 133.751,166.284 133.886,166.823 133.398 C 167.315 132.953,167.319 126.884,166.828 126.440 C 166.511 126.153,147.251 125.994,146.474 126.271 M243.578 126.423 C 243.200 126.688,243.189 126.786,243.189 129.917 C 243.189 133.047,243.200 133.146,243.578 133.411 C 244.054 133.745,263.436 133.831,264.050 133.502 C 264.367 133.333,264.389 133.103,264.389 129.917 C 264.389 126.730,264.367 126.501,264.050 126.331 C 263.436 126.002,244.054 126.089,243.578 126.423 M297.017 126.773 C 296.641 127.036,296.627 127.149,296.627 129.917 C 296.627 132.685,296.641 132.798,297.017 133.061 C 297.543 133.429,317.805 133.473,318.528 133.107 L 318.966 132.885 318.966 129.917 L 318.966 126.949 318.528 126.727 C 317.805 126.361,297.543 126.404,297.017 126.773 M146.113 134.570 C 145.669 135.014,145.648 141.339,146.088 141.779 C 146.534 142.224,166.348 142.194,166.794 141.747 C 167.312 141.229,167.342 134.964,166.828 134.499 C 166.272 133.996,146.620 134.063,146.113 134.570 M243.553 134.516 C 243.190 134.813,243.180 134.930,243.227 138.234 L 243.276 141.646 243.714 141.867 C 244.437 142.233,263.474 142.189,264.000 141.821 C 264.568 141.423,264.614 134.692,264.050 134.391 C 263.382 134.033,243.999 134.152,243.553 134.516 M297.017 134.833 C 296.556 135.155,296.396 141.617,296.837 142.059 C 297.169 142.390,318.585 142.360,318.861 142.027 C 319.000 141.860,319.047 140.748,319.014 138.397 L 318.966 135.008 318.528 134.786 C 317.804 134.420,297.543 134.464,297.017 134.833 M65.656 152.552 C 65.257 152.656,64.838 153.504,64.141 155.613 C 63.510 157.523,63.381 157.634,62.334 157.159 C 59.546 155.893,57.025 157.815,55.425 162.425 C 53.882 166.874,55.190 168.942,58.755 167.691 C 59.683 167.365,59.825 167.356,60.279 167.590 C 61.895 168.426,62.140 168.105,63.960 162.768 C 64.831 160.215,65.894 157.096,66.324 155.838 C 67.401 152.684,67.288 152.127,65.656 152.552 M133.282 152.825 C 133.069 153.042,132.581 154.156,132.196 155.300 C 131.405 157.656,131.348 157.709,130.176 157.160 C 128.123 156.198,125.703 157.380,124.387 159.986 C 121.505 165.695,122.471 169.052,126.605 167.694 C 127.659 167.348,127.778 167.341,128.270 167.596 C 129.875 168.426,130.121 168.066,132.288 161.717 C 135.503 152.300,135.334 152.927,134.747 152.612 C 134.209 152.325,133.699 152.399,133.282 152.825 M146.711 152.554 C 146.214 152.649,145.848 153.082,145.630 153.833 C 145.532 154.170,144.651 156.772,143.673 159.615 C 140.993 167.400,141.056 167.197,141.241 167.542 C 141.342 167.731,141.609 167.849,141.936 167.849 C 143.050 167.849,143.121 167.730,144.566 163.430 C 146.171 158.654,146.653 158.529,147.002 162.798 C 147.191 165.107,147.328 165.515,147.970 165.676 C 148.724 165.866,148.791 165.798,152.776 160.797 C 153.665 159.681,154.041 159.419,154.255 159.764 C 154.305 159.846,153.837 161.473,153.214 163.379 C 151.807 167.683,151.800 167.849,153.039 167.849 C 153.809 167.849,154.145 167.307,155.043 164.608 C 155.524 163.163,156.592 160.015,157.416 157.613 C 159.101 152.699,159.070 152.845,158.481 152.577 C 157.524 152.141,157.056 152.567,153.350 157.249 C 149.415 162.222,149.268 162.333,149.063 160.491 C 148.993 159.864,148.818 158.366,148.675 157.162 C 148.532 155.957,148.374 154.543,148.324 154.018 C 148.208 152.783,147.741 152.359,146.711 152.554 M313.228 152.620 C 312.814 152.862,312.480 153.545,311.842 155.460 C 311.122 157.621,311.073 157.664,309.921 157.169 C 307.046 155.932,304.662 157.809,302.978 162.638 C 301.506 166.859,302.880 168.909,306.361 167.685 C 307.231 167.380,307.386 167.371,307.928 167.598 C 309.539 168.271,309.812 168.009,310.951 164.696 C 312.495 160.205,314.849 153.195,314.849 153.087 C 314.849 152.572,313.820 152.276,313.228 152.620 M49.208 153.088 C 48.831 153.499,39.553 166.467,39.174 167.112 C 38.819 167.718,40.108 168.091,40.940 167.624 C 41.148 167.507,41.611 166.978,41.970 166.448 C 42.328 165.918,42.823 165.267,43.069 165.002 L 43.517 164.520 46.188 164.520 C 49.384 164.520,49.409 164.533,49.409 166.170 C 49.409 167.641,50.616 168.499,51.476 167.639 C 51.904 167.211,51.599 153.397,51.149 152.855 C 50.785 152.416,49.705 152.546,49.208 153.088 M273.424 152.762 C 273.328 152.918,270.108 162.250,269.018 165.533 C 268.464 167.199,268.467 167.636,269.032 167.777 C 270.181 168.066,270.437 167.718,271.562 164.345 C 272.391 161.857,272.184 161.997,275.215 161.884 C 277.648 161.794,277.846 161.760,278.744 161.271 C 282.435 159.264,283.817 154.475,281.114 153.058 C 280.332 152.648,273.654 152.391,273.424 152.762 M262.414 154.081 C 262.278 154.217,262.068 154.591,261.949 154.913 C 261.453 156.249,261.224 156.634,260.760 156.922 C 259.790 157.523,259.583 158.215,260.085 159.182 C 260.299 159.596,260.301 159.758,260.096 160.297 C 257.987 165.843,257.975 167.637,260.047 167.809 C 261.590 167.937,262.467 166.568,261.323 165.818 C 260.707 165.415,260.754 164.947,261.697 162.129 C 262.610 159.402,262.720 159.224,263.672 158.939 C 264.189 158.784,264.423 158.583,264.655 158.094 L 264.959 157.452 264.410 157.000 C 263.787 156.488,263.733 156.092,264.146 155.061 C 264.574 153.990,263.252 153.242,262.414 154.081 M340.914 154.020 C 340.747 154.118,340.481 154.641,340.324 155.183 C 340.051 156.122,339.840 156.409,338.787 157.280 C 338.315 157.671,338.142 158.604,338.502 158.826 C 338.852 159.042,338.659 160.065,337.783 162.647 C 336.394 166.737,336.585 167.849,338.674 167.849 C 340.129 167.849,340.725 166.695,339.728 165.807 C 339.046 165.199,339.059 165.080,340.146 161.980 C 340.932 159.736,341.135 159.320,341.536 159.133 C 341.795 159.012,342.217 158.815,342.474 158.695 C 343.270 158.322,343.380 157.575,342.727 156.979 C 342.099 156.405,342.082 156.290,342.462 155.174 C 342.864 153.993,342.029 153.371,340.914 154.020 M278.801 154.718 C 280.632 155.227,280.568 157.641,278.684 159.167 C 277.887 159.813,273.979 160.104,273.521 159.552 C 273.122 159.072,274.618 154.986,275.291 154.716 C 275.841 154.495,278.002 154.496,278.801 154.718 M82.722 157.017 C 80.972 157.263,79.712 158.070,80.061 158.722 C 80.333 159.230,80.719 159.287,81.871 158.989 C 84.020 158.432,85.509 159.543,84.438 160.905 C 84.103 161.330,83.971 161.367,82.764 161.367 C 78.634 161.367,75.579 164.089,76.771 166.707 C 77.257 167.772,79.924 168.328,81.521 167.696 C 81.882 167.553,82.214 167.558,82.802 167.715 C 84.232 168.098,84.349 167.943,85.738 163.840 C 87.739 157.929,87.066 156.406,82.722 157.017 M95.439 156.999 C 95.074 157.087,94.542 157.280,94.256 157.428 C 93.770 157.679,93.702 157.672,93.237 157.329 C 91.799 156.266,91.307 156.871,89.636 161.754 C 88.920 163.846,88.291 165.627,88.239 165.712 C 87.597 166.751,87.907 167.849,88.843 167.849 C 89.664 167.849,89.921 167.407,91.091 163.987 C 92.624 159.508,92.945 159.089,94.846 159.089 C 96.764 159.089,96.916 159.925,95.649 163.498 C 94.187 167.623,94.173 167.849,95.389 167.849 C 96.297 167.849,96.479 167.558,97.576 164.345 C 98.984 160.220,99.137 159.218,98.569 157.853 C 98.280 157.158,96.638 156.709,95.439 156.999 M106.412 156.984 C 101.921 157.931,98.636 165.353,101.778 167.452 C 103.470 168.582,108.103 167.520,108.103 166.001 C 108.103 165.197,107.398 164.957,106.409 165.424 C 103.021 167.024,101.698 163.864,104.270 160.314 C 105.097 159.173,107.423 158.625,108.376 159.346 C 108.856 159.709,109.454 159.675,110.151 159.244 C 111.974 158.117,109.146 156.408,106.412 156.984 M116.889 157.000 C 112.600 157.843,109.404 165.838,112.671 167.551 C 114.155 168.328,118.107 167.547,118.643 166.371 C 119.042 165.495,118.081 164.945,117.068 165.469 C 115.328 166.369,113.535 165.799,113.535 164.347 C 113.535 163.336,113.661 163.294,116.697 163.294 C 120.165 163.294,120.461 163.201,120.798 162.006 C 121.879 158.167,120.426 156.304,116.889 157.000 M163.732 157.050 C 162.188 157.376,161.191 157.938,161.191 158.483 C 161.191 159.168,161.807 159.355,162.947 159.017 C 164.723 158.489,165.749 158.778,166.027 159.883 C 166.299 160.966,165.673 161.277,162.901 161.436 C 158.857 161.669,155.995 166.077,158.909 167.584 C 159.627 167.955,165.264 167.883,165.645 167.498 C 166.103 167.035,168.240 160.360,168.240 159.394 C 168.240 157.466,166.369 156.493,163.732 157.050 M176.522 157.095 C 174.996 157.547,174.891 157.556,174.480 157.267 C 174.064 156.976,173.161 156.896,172.825 157.121 C 172.517 157.326,172.229 157.969,171.518 160.039 C 171.152 161.106,170.453 163.123,169.965 164.520 C 168.883 167.618,168.895 167.849,170.140 167.849 C 170.959 167.849,171.217 167.408,172.390 163.996 C 173.946 159.468,174.364 158.961,176.397 159.130 C 178.288 159.286,178.232 160.745,176.142 165.765 C 175.504 167.295,176.010 168.189,177.263 167.749 C 178.175 167.428,180.494 159.973,180.117 158.573 C 179.726 157.123,178.344 156.555,176.522 157.095 M198.423 156.969 C 196.348 157.490,194.795 159.448,193.710 162.909 C 192.505 166.753,193.994 168.787,197.214 167.696 C 198.436 167.282,198.632 167.396,198.253 168.302 C 197.524 170.046,195.461 170.845,193.995 169.951 C 192.902 169.285,191.362 170.083,191.816 171.080 C 192.779 173.192,197.836 172.200,199.617 169.549 C 200.866 167.690,204.301 158.007,203.946 157.344 C 203.692 156.870,202.841 156.873,202.170 157.351 L 201.658 157.716 200.917 157.362 C 200.014 156.932,199.125 156.792,198.423 156.969 M210.296 157.053 C 206.067 158.124,203.080 165.806,206.220 167.534 C 208.060 168.547,213.075 167.107,212.252 165.802 C 211.900 165.244,211.526 165.125,210.911 165.372 C 209.055 166.121,207.981 166.057,207.439 165.168 C 206.498 163.626,207.036 163.294,210.471 163.294 C 213.968 163.294,213.990 163.285,214.468 161.712 C 215.531 158.213,213.717 156.187,210.296 157.053 M223.478 156.927 C 223.285 156.968,222.797 157.121,222.394 157.267 C 221.735 157.505,221.606 157.505,221.132 157.259 C 219.508 156.419,219.158 156.785,217.786 160.753 C 217.187 162.488,216.468 164.564,216.189 165.367 C 215.453 167.482,215.520 167.849,216.640 167.849 C 217.461 167.849,217.764 167.331,218.923 163.943 C 220.446 159.489,220.870 158.967,222.832 159.130 C 224.569 159.274,224.640 159.848,223.369 163.469 C 221.892 167.677,221.881 167.853,223.105 167.847 C 224.088 167.842,224.144 167.749,225.353 164.111 C 226.803 159.745,227.291 159.091,229.098 159.090 C 231.056 159.088,231.135 159.795,229.665 164.147 C 228.471 167.678,228.473 167.849,229.698 167.849 C 230.524 167.849,230.737 167.477,231.908 163.993 C 233.612 158.921,233.539 157.579,231.528 157.011 C 230.449 156.706,229.238 156.947,228.119 157.690 C 227.130 158.346,226.859 158.344,226.235 157.676 C 225.606 157.002,224.512 156.705,223.478 156.927 M240.446 156.984 C 236.041 157.913,232.864 165.806,236.193 167.551 C 237.605 168.291,241.536 167.571,242.129 166.464 C 242.570 165.639,241.562 164.966,240.617 165.455 C 238.850 166.369,237.057 165.811,237.057 164.347 C 237.057 163.336,237.183 163.294,240.219 163.294 C 243.730 163.294,243.974 163.213,244.363 161.919 C 245.431 158.364,243.778 156.281,240.446 156.984 M253.126 156.999 C 252.762 157.087,252.237 157.275,251.961 157.418 C 251.501 157.656,251.422 157.649,251.019 157.332 C 249.954 156.494,248.881 157.056,248.372 158.719 C 248.236 159.163,247.566 161.151,246.883 163.136 C 245.334 167.640,245.325 167.849,246.680 167.849 C 247.424 167.849,247.636 167.472,248.774 164.120 C 250.299 159.627,250.694 159.089,252.469 159.089 C 254.528 159.089,254.672 159.945,253.272 163.863 C 252.023 167.357,252.008 167.424,252.448 167.660 C 252.922 167.913,253.566 167.899,253.938 167.627 C 254.313 167.353,256.438 161.177,256.593 159.912 C 256.864 157.696,255.386 156.454,253.126 156.999 M296.676 156.991 C 292.223 157.628,288.725 165.812,292.131 167.626 C 294.264 168.761,297.704 167.351,299.247 164.709 C 302.190 159.670,301.088 156.360,296.676 156.991 M331.581 157.058 C 327.321 158.114,324.205 165.280,327.079 167.411 C 328.197 168.240,331.830 167.903,333.076 166.854 C 334.098 165.995,333.283 164.794,332.046 165.336 C 328.900 166.715,327.606 165.459,328.789 162.178 C 329.756 159.499,331.900 158.282,333.771 159.352 C 334.421 159.723,334.982 159.668,335.638 159.168 C 337.370 157.847,334.475 156.341,331.581 157.058 M349.197 157.012 C 346.857 157.354,344.985 159.234,344.985 161.243 C 344.985 162.486,345.704 162.973,347.876 163.202 C 349.469 163.369,350.066 163.673,350.066 164.317 C 350.066 165.767,347.217 166.485,345.345 165.506 C 344.254 164.935,344.092 164.935,343.421 165.500 C 340.956 167.574,347.312 168.935,350.282 166.968 C 351.786 165.971,352.767 163.878,352.279 162.709 C 351.967 161.962,351.234 161.617,349.307 161.308 C 347.149 160.962,346.764 160.508,347.794 159.521 C 348.464 158.879,350.259 158.697,351.364 159.159 C 352.547 159.653,353.920 159.182,353.920 158.283 C 353.920 157.346,351.454 156.683,349.197 157.012 M68.421 157.226 C 68.025 157.515,68.020 157.660,68.213 163.031 C 68.453 169.732,68.678 169.716,73.732 162.654 C 77.391 157.541,77.367 157.581,77.082 157.238 C 76.340 156.344,75.475 157.051,73.192 160.418 C 70.298 164.686,70.258 164.686,70.258 160.409 C 70.258 157.055,69.782 156.230,68.421 157.226 M186.656 157.144 C 185.167 157.526,184.383 158.354,184.962 158.934 C 185.335 159.307,185.347 159.308,186.570 159.008 C 188.430 158.552,189.458 158.955,189.458 160.140 C 189.458 161.104,189.076 161.303,186.987 161.422 C 183.848 161.601,182.745 162.165,181.854 164.048 C 180.499 166.912,182.165 168.524,185.712 167.781 C 186.448 167.626,187.029 167.597,187.375 167.697 C 188.917 168.139,189.045 167.977,190.455 163.817 C 192.008 159.236,192.029 158.155,190.580 157.397 C 189.945 157.065,187.565 156.911,186.656 157.144 M284.550 157.449 C 284.350 157.703,284.075 158.274,283.938 158.719 C 283.801 159.163,283.131 161.160,282.449 163.157 C 280.945 167.559,280.922 167.849,282.087 167.849 C 282.888 167.849,283.113 167.475,284.168 164.378 C 285.860 159.414,286.815 158.435,289.290 159.130 C 290.291 159.412,291.701 157.789,290.939 157.232 C 290.427 156.858,288.690 156.917,287.867 157.337 C 287.489 157.530,287.071 157.687,286.937 157.687 C 286.804 157.687,286.552 157.530,286.378 157.337 C 285.907 156.817,285.004 156.872,284.550 157.449 M316.826 157.381 C 316.187 158.077,314.275 164.065,314.254 165.436 C 314.222 167.523,316.104 168.488,318.455 167.590 C 319.181 167.313,319.287 167.311,319.831 167.570 C 321.388 168.308,321.760 167.928,322.989 164.345 C 325.606 156.715,325.531 157.106,324.392 157.022 C 323.355 156.946,323.108 157.338,321.973 160.860 C 320.608 165.097,320.055 165.834,318.237 165.834 C 316.405 165.834,316.202 164.933,317.314 161.746 C 318.813 157.453,318.784 157.558,318.537 157.260 C 318.196 156.849,317.253 156.915,316.826 157.381 M49.117 157.293 C 49.160 157.365,49.253 158.415,49.322 159.627 C 49.484 162.471,49.501 162.449,47.158 162.380 C 44.980 162.316,44.966 162.246,46.617 159.818 C 48.348 157.272,48.818 156.797,49.117 157.293 M200.601 159.375 C 201.463 160.472,199.881 164.860,198.335 165.659 C 195.609 167.069,194.775 164.538,196.717 160.750 C 197.611 159.008,199.723 158.260,200.601 159.375 M298.258 159.415 C 299.384 160.541,297.565 165.030,295.696 165.736 C 293.152 166.697,292.368 164.393,294.090 161.016 C 295.053 159.127,297.160 158.318,298.258 159.415 M61.985 159.362 C 62.983 160.061,61.658 164.332,60.082 165.494 C 58.759 166.471,57.051 165.909,57.075 164.505 C 57.135 160.957,59.991 157.965,61.985 159.362 M118.780 159.339 C 119.157 159.793,118.938 161.066,118.441 161.316 C 117.536 161.772,114.898 161.512,114.791 160.956 C 114.550 159.703,117.941 158.328,118.780 159.339 M129.965 159.362 C 130.859 159.987,129.743 163.898,128.273 165.294 C 127.085 166.421,124.923 165.956,124.923 164.573 C 124.923 163.948,125.868 161.106,126.324 160.358 C 127.031 159.198,128.973 158.667,129.965 159.362 M212.339 159.551 C 212.763 160.089,212.803 160.636,212.454 161.114 C 212.123 161.566,208.772 161.632,208.494 161.191 C 208.144 160.638,208.966 159.369,209.776 159.211 C 211.049 158.965,211.975 159.087,212.339 159.551 M242.302 159.339 C 242.679 159.793,242.460 161.066,241.962 161.316 C 240.999 161.801,238.406 161.506,238.318 160.902 C 238.136 159.652,241.475 158.342,242.302 159.339 M309.879 159.530 C 310.572 160.478,309.060 164.580,307.667 165.528 C 306.399 166.391,304.687 165.831,304.687 164.552 C 304.687 162.866,306.201 159.684,307.209 159.251 C 307.851 158.975,309.607 159.158,309.879 159.530 M83.200 163.234 C 84.119 163.480,83.360 165.368,82.115 165.933 C 79.976 166.904,77.933 165.591,79.238 164.085 C 79.917 163.301,81.877 162.880,83.200 163.234 M164.532 163.300 C 165.210 163.663,164.603 165.333,163.599 165.866 C 161.506 166.977,159.262 165.591,160.593 164.009 C 161.262 163.215,163.589 162.795,164.532 163.300 M188.010 163.300 C 188.771 163.708,188.050 165.406,186.893 165.931 C 184.435 167.047,182.464 165.411,184.282 163.765 C 184.939 163.171,187.234 162.885,188.010 163.300 " stroke="none" fill="#000000" fill-rule="evenodd"></path><path id="path1" d="M0.000 87.604 L 0.000 175.208 200.000 175.208 L 400.000 175.208 400.000 87.604 L 400.000 0.000 200.000 0.000 L 0.000 0.000 0.000 87.604 M75.596 5.485 C 75.742 5.708,76.245 6.910,76.714 8.157 C 77.183 9.404,78.442 12.751,79.511 15.594 C 80.580 18.436,82.408 23.285,83.574 26.369 C 84.740 29.452,86.134 33.158,86.672 34.604 C 87.210 36.049,87.829 37.705,88.047 38.283 C 88.266 38.861,88.858 40.438,89.362 41.787 C 89.867 43.136,90.431 44.634,90.616 45.116 C 90.801 45.598,91.377 47.135,91.896 48.533 C 92.416 49.930,93.795 53.596,94.961 56.680 C 96.128 59.763,97.508 63.430,98.028 64.827 C 98.548 66.224,99.140 67.801,99.343 68.331 C 99.546 68.861,100.139 70.438,100.661 71.835 C 101.569 74.266,103.738 80.046,105.067 83.574 C 105.412 84.490,105.798 85.515,105.925 85.852 C 106.051 86.189,106.675 87.845,107.311 89.531 C 107.947 91.218,108.893 93.741,109.415 95.138 C 109.936 96.535,110.528 98.112,110.731 98.642 C 110.935 99.172,111.527 100.749,112.048 102.146 C 112.569 103.544,113.357 105.633,113.797 106.789 C 114.804 109.429,115.105 110.234,115.859 112.308 C 116.192 113.224,116.743 114.682,117.083 115.550 C 117.424 116.417,117.825 117.481,117.976 117.915 C 118.126 118.349,118.495 119.334,118.796 120.105 C 119.096 120.876,119.566 122.138,119.841 122.908 C 120.115 123.679,120.589 124.941,120.894 125.712 C 121.198 126.483,121.608 127.587,121.805 128.165 C 122.001 128.743,122.268 129.452,122.398 129.742 C 122.528 130.031,123.028 131.332,123.510 132.633 C 123.991 133.933,124.906 136.378,125.543 138.064 C 126.992 141.900,126.933 141.696,126.675 142.007 C 126.439 142.291,103.338 142.415,102.915 142.135 C 102.664 141.968,102.234 141.121,102.005 140.342 C 101.906 140.004,101.509 138.822,101.122 137.714 C 99.349 132.633,97.534 127.401,97.324 126.763 C 96.722 124.943,94.266 117.919,94.000 117.260 C 93.531 116.099,94.933 116.154,66.877 116.204 C 37.983 116.257,40.900 116.089,40.398 117.725 C 40.262 118.167,39.625 120.026,38.983 121.857 C 38.341 123.688,37.711 125.502,37.584 125.887 C 37.005 127.640,33.025 139.127,32.338 141.027 C 32.184 141.453,31.971 141.906,31.864 142.035 C 31.574 142.384,8.196 142.381,7.906 142.032 C 7.705 141.791,7.830 141.337,8.757 138.940 C 9.211 137.766,10.823 133.442,11.566 131.406 C 11.865 130.587,12.258 129.562,12.439 129.128 C 12.620 128.695,13.054 127.551,13.404 126.588 C 13.754 125.624,14.347 124.047,14.723 123.084 C 15.098 122.120,15.650 120.661,15.949 119.842 C 16.704 117.773,17.084 116.757,17.521 115.637 C 17.728 115.107,17.965 114.458,18.047 114.194 C 18.129 113.930,18.411 113.181,18.674 112.529 C 18.937 111.878,19.410 110.635,19.726 109.768 C 20.042 108.901,20.807 106.851,21.425 105.212 C 22.043 103.574,23.079 100.815,23.727 99.080 C 24.375 97.346,25.091 95.453,25.318 94.875 C 25.545 94.297,25.922 93.311,26.155 92.685 C 28.080 87.523,28.587 86.167,28.910 85.326 C 29.246 84.450,29.851 82.841,30.920 79.982 C 33.132 74.063,33.920 71.968,34.610 70.171 C 35.054 69.014,35.485 67.871,35.568 67.630 C 35.652 67.389,36.241 65.813,36.877 64.126 C 37.514 62.440,38.461 59.917,38.982 58.519 C 39.503 57.122,40.096 55.545,40.301 55.015 C 40.506 54.485,40.815 53.657,40.988 53.176 C 41.160 52.694,41.504 51.787,41.752 51.161 C 42.000 50.534,43.205 47.341,44.431 44.065 C 45.656 40.788,47.164 36.767,47.782 35.129 C 48.399 33.491,49.005 31.875,49.127 31.537 C 49.745 29.837,51.733 24.539,51.953 24.004 C 52.092 23.666,52.629 22.247,53.147 20.850 C 55.529 14.415,58.560 6.382,58.729 6.055 C 59.262 5.021,58.726 5.081,67.391 5.081 L 75.331 5.081 75.596 5.485 M171.853 5.388 C 172.292 5.759,174.195 10.931,174.121 11.552 C 174.036 12.255,173.599 12.276,159.689 12.225 L 146.443 12.177 146.108 11.763 C 145.650 11.198,145.600 6.107,146.046 5.470 L 146.319 5.081 158.904 5.081 C 170.635 5.081,171.515 5.102,171.853 5.388 M264.179 5.291 C 264.618 5.731,264.459 11.670,264.000 11.992 C 263.587 12.281,237.728 12.391,236.706 12.109 C 236.033 11.922,236.075 11.411,236.979 8.790 C 237.883 6.172,238.022 5.844,238.420 5.388 C 238.761 4.997,263.791 4.903,264.179 5.291 M356.461 5.386 C 361.648 6.062,366.006 7.251,370.113 9.111 C 372.997 10.417,373.848 10.975,373.669 11.442 C 373.531 11.799,297.632 11.914,296.966 11.558 C 296.545 11.332,296.437 5.692,296.846 5.282 C 297.110 5.019,354.406 5.118,356.461 5.386 M174.643 13.018 C 174.835 13.191,175.319 14.255,175.719 15.383 C 176.119 16.511,176.601 17.829,176.791 18.313 C 177.642 20.484,178.789 20.338,161.332 20.283 L 146.443 20.237 146.108 19.823 C 145.231 18.739,145.711 12.932,146.694 12.736 C 148.113 12.453,174.311 12.717,174.643 13.018 M264.000 12.888 C 264.379 13.153,264.389 13.249,264.389 16.470 C 264.389 19.690,264.379 19.786,264.000 20.051 C 263.536 20.376,234.495 20.474,233.651 20.153 C 233.031 19.917,233.059 19.730,234.230 16.404 C 235.282 13.416,235.584 12.865,236.243 12.736 C 237.519 12.487,263.630 12.629,264.000 12.888 M377.311 13.468 C 378.771 14.135,382.715 17.968,382.621 18.628 L 382.567 19.010 339.834 19.054 C 308.392 19.087,297.039 19.046,296.865 18.901 C 296.465 18.570,296.528 13.566,296.934 13.330 C 297.573 12.957,376.489 13.093,377.311 13.468 M384.396 20.757 C 384.669 20.898,385.245 21.548,385.676 22.202 C 387.554 25.055,387.757 25.424,387.702 25.895 L 387.648 26.369 342.375 26.413 C 309.054 26.445,297.039 26.405,296.865 26.260 C 296.494 25.952,296.527 21.151,296.903 20.775 C 297.308 20.369,383.612 20.351,384.396 20.757 M177.203 20.842 C 177.671 21.020,177.974 21.499,178.425 22.777 C 178.578 23.211,178.909 24.117,179.161 24.792 C 179.413 25.466,179.739 26.401,179.885 26.869 C 180.371 28.422,181.860 28.296,163.009 28.296 L 146.443 28.296 146.108 27.882 C 145.335 26.928,145.679 21.194,146.529 20.851 C 147.060 20.637,176.641 20.629,177.203 20.842 M264.025 20.981 C 264.387 21.278,264.398 21.397,264.351 24.612 L 264.301 27.936 263.863 28.157 C 263.309 28.437,231.575 28.489,230.844 28.211 C 230.103 27.930,230.136 27.648,231.282 24.486 C 232.428 21.324,232.647 20.917,233.264 20.796 C 234.687 20.517,263.671 20.692,264.025 20.981 M318.664 28.131 C 319.124 28.452,319.281 33.869,318.844 34.306 C 318.540 34.610,297.141 34.610,296.837 34.306 C 296.490 33.959,296.548 28.488,296.903 28.133 C 297.319 27.717,318.071 27.715,318.664 28.131 M388.506 28.027 C 389.279 28.320,390.981 32.583,390.853 33.903 L 390.802 34.428 378.636 34.473 L 366.470 34.518 365.758 33.706 C 363.803 31.476,362.837 30.566,361.465 29.666 C 359.745 28.538,359.599 28.378,360.002 28.077 C 360.369 27.803,387.790 27.754,388.506 28.027 M180.091 28.928 C 180.651 29.123,180.911 29.452,181.169 30.292 C 181.246 30.543,181.557 31.419,181.861 32.238 C 182.165 33.057,182.575 34.189,182.773 34.753 C 183.391 36.515,185.212 36.356,164.499 36.356 L 146.443 36.356 146.108 35.942 C 145.335 34.988,145.679 29.253,146.529 28.911 C 147.118 28.674,179.410 28.690,180.091 28.928 M264.000 29.007 C 264.379 29.272,264.389 29.368,264.389 32.589 C 264.389 35.810,264.379 35.905,264.000 36.171 C 263.588 36.459,228.975 36.571,227.946 36.288 C 227.366 36.128,227.287 35.349,227.736 34.222 C 228.099 33.311,228.554 32.086,229.172 30.360 C 229.582 29.212,229.743 29.001,230.311 28.861 C 231.369 28.601,263.619 28.741,264.000 29.007 M318.664 36.190 C 319.124 36.512,319.281 41.928,318.844 42.365 C 318.540 42.669,297.141 42.669,296.837 42.365 C 296.490 42.018,296.548 36.548,296.903 36.193 C 297.319 35.777,318.071 35.775,318.664 36.190 M391.308 36.312 C 391.994 36.928,392.765 41.856,392.256 42.365 C 391.944 42.677,369.633 42.669,369.376 42.357 C 369.277 42.236,368.984 41.358,368.725 40.405 C 368.466 39.453,368.104 38.323,367.920 37.894 C 367.538 37.001,367.486 36.163,367.806 36.034 C 367.926 35.985,373.165 35.939,379.447 35.931 L 390.870 35.918 391.308 36.312 M183.147 37.021 C 183.643 37.233,183.789 37.526,184.846 40.432 C 185.031 40.939,185.342 41.769,185.539 42.275 C 186.038 43.561,186.011 44.117,185.438 44.335 C 185.143 44.447,178.152 44.492,165.712 44.462 L 146.443 44.415 146.108 44.002 C 145.437 43.173,145.645 37.345,146.358 37.001 C 146.937 36.721,182.492 36.740,183.147 37.021 M264.114 37.069 C 264.615 37.570,264.514 43.870,264.000 44.230 C 263.535 44.556,225.738 44.654,224.891 44.332 C 224.250 44.088,224.320 43.414,225.222 41.174 C 225.358 40.837,225.719 39.890,226.024 39.071 C 226.632 37.440,226.795 37.176,227.326 36.960 C 228.073 36.658,263.808 36.763,264.114 37.069 M66.936 41.779 C 66.820 41.919,66.617 42.372,66.485 42.786 C 66.353 43.200,65.883 44.564,65.442 45.817 C 65.001 47.070,64.248 49.238,63.770 50.635 C 63.292 52.032,62.701 53.728,62.455 54.402 C 62.210 55.077,61.738 56.417,61.407 57.381 C 61.075 58.344,60.323 60.512,59.736 62.199 C 59.148 63.885,58.562 65.580,58.432 65.966 C 58.302 66.351,57.834 67.692,57.392 68.944 C 56.950 70.197,56.319 72.011,55.989 72.974 C 55.659 73.938,55.114 75.515,54.777 76.478 C 53.671 79.642,51.857 84.860,51.335 86.378 C 51.054 87.197,50.462 88.892,50.020 90.145 C 48.733 93.793,48.657 94.078,48.894 94.363 C 49.134 94.651,85.202 94.741,85.656 94.454 C 85.940 94.274,85.863 93.729,85.355 92.335 C 85.028 91.434,82.435 83.989,81.908 82.435 C 81.777 82.050,81.309 80.710,80.868 79.457 C 80.426 78.204,79.835 76.509,79.554 75.690 C 79.273 74.871,78.559 72.821,77.967 71.134 C 77.375 69.448,76.622 67.280,76.293 66.316 C 75.964 65.353,75.534 64.091,75.336 63.513 C 75.138 62.935,74.903 62.304,74.812 62.111 C 74.722 61.919,74.412 61.051,74.124 60.184 C 73.836 59.317,73.121 57.227,72.535 55.541 C 71.950 53.855,71.201 51.686,70.871 50.723 C 70.540 49.759,69.908 47.946,69.466 46.693 C 69.024 45.440,68.559 44.100,68.433 43.714 C 67.750 41.631,67.416 41.200,66.936 41.779 M318.664 44.250 C 319.124 44.572,319.281 49.988,318.844 50.425 C 318.540 50.729,297.141 50.729,296.837 50.425 C 296.490 50.078,296.548 44.607,296.903 44.253 C 297.319 43.837,318.071 43.834,318.664 44.250 M392.375 44.323 C 392.753 44.741,392.838 49.589,392.479 50.260 L 392.279 50.635 381.106 50.635 C 372.651 50.635,369.883 50.584,369.724 50.425 C 369.287 49.988,369.444 44.572,369.903 44.250 C 370.583 43.774,391.941 43.844,392.375 44.323 M186.393 45.266 C 186.590 45.444,186.910 46.036,187.103 46.580 C 187.296 47.124,187.662 48.121,187.916 48.795 C 188.735 50.970,188.977 52.004,188.727 52.254 C 188.403 52.579,169.707 52.660,169.076 52.340 C 168.835 52.217,168.366 51.658,168.033 51.095 C 167.386 50.001,167.188 50.045,167.161 51.292 C 167.132 52.639,167.671 52.577,156.441 52.523 L 146.443 52.475 146.108 52.061 C 145.437 51.233,145.645 45.406,146.358 45.059 C 147.136 44.680,185.968 44.881,186.393 45.266 M264.114 45.129 C 264.634 45.649,264.512 51.948,263.975 52.300 C 263.612 52.538,262.342 52.565,253.536 52.523 C 242.152 52.468,243.014 52.595,243.014 50.974 C 243.014 48.546,242.482 48.617,241.617 51.161 C 241.127 52.603,241.436 52.562,231.163 52.562 C 222.632 52.562,222.183 52.547,221.793 52.231 L 221.383 51.899 221.858 50.522 C 222.120 49.765,222.537 48.594,222.786 47.919 C 223.034 47.245,223.323 46.456,223.427 46.167 C 223.670 45.492,223.905 45.200,224.348 45.020 C 225.095 44.717,263.808 44.823,264.114 45.129 M318.733 52.327 C 319.129 52.685,319.226 58.102,318.844 58.484 C 318.540 58.788,297.141 58.788,296.837 58.484 C 296.490 58.137,296.548 52.667,296.903 52.312 C 297.334 51.881,318.256 51.895,318.733 52.327 M392.204 52.389 C 392.616 52.844,391.951 57.535,391.370 58.274 L 391.037 58.697 379.180 58.652 L 367.324 58.607 367.270 58.227 C 367.240 58.019,367.451 57.293,367.740 56.616 C 368.028 55.939,368.432 54.769,368.638 54.017 C 369.236 51.836,368.004 52.037,380.807 52.037 C 391.678 52.037,391.892 52.043,392.204 52.389 M166.798 53.263 C 167.338 53.803,167.335 59.735,166.794 60.276 C 166.445 60.625,166.278 60.630,156.441 60.582 L 146.443 60.534 146.108 60.121 C 145.437 59.292,145.645 53.464,146.358 53.120 C 147.177 52.724,166.393 52.859,166.798 53.263 M189.375 53.328 C 189.573 53.508,189.850 54.020,189.990 54.467 C 190.129 54.913,190.534 56.067,190.890 57.030 C 192.378 61.059,193.460 60.646,181.591 60.584 L 172.082 60.534 171.630 60.110 C 171.382 59.876,171.176 59.561,171.172 59.409 C 171.169 59.257,171.014 58.817,170.828 58.432 C 170.642 58.046,170.487 57.654,170.483 57.559 C 170.478 57.396,170.150 56.510,169.391 54.607 C 169.079 53.823,169.075 53.729,169.335 53.332 L 169.615 52.904 179.314 52.952 C 188.502 52.998,189.032 53.018,189.375 53.328 M240.222 53.094 C 240.671 53.335,240.649 53.760,240.115 55.161 C 239.640 56.406,239.211 57.566,238.729 58.911 C 238.565 59.367,238.287 59.919,238.110 60.137 L 237.788 60.534 228.385 60.534 C 216.895 60.534,217.987 61.040,219.671 56.505 C 220.748 53.602,220.915 53.261,221.337 53.091 C 221.901 52.864,239.797 52.867,240.222 53.094 M264.114 53.188 C 264.634 53.708,264.512 60.008,263.975 60.359 C 263.263 60.826,243.609 60.669,243.262 60.194 C 242.790 59.548,242.911 53.530,243.403 53.186 C 243.996 52.770,263.698 52.772,264.114 53.188 M318.733 60.386 C 319.129 60.745,319.226 66.161,318.844 66.544 C 318.540 66.848,297.141 66.848,296.837 66.544 C 296.490 66.197,296.548 60.726,296.903 60.372 C 297.334 59.941,318.256 59.955,318.733 60.386 M390.623 60.381 C 390.949 60.707,390.906 61.017,390.235 63.163 C 389.725 64.795,389.140 66.014,388.659 66.449 C 388.339 66.738,387.419 66.754,373.441 66.711 C 356.709 66.661,357.462 66.734,359.937 65.407 C 361.812 64.401,362.951 63.508,364.370 61.932 C 365.031 61.198,365.769 60.487,366.010 60.354 C 366.725 59.956,390.224 59.982,390.623 60.381 M166.798 61.323 C 167.254 61.778,167.340 67.652,166.900 68.254 C 166.659 68.584,166.347 68.594,156.547 68.594 L 146.443 68.594 146.108 68.180 C 145.437 67.352,145.645 61.524,146.358 61.179 C 147.177 60.783,166.393 60.918,166.798 61.323 M191.934 61.145 C 192.387 61.317,192.825 62.108,193.344 63.688 C 193.470 64.074,193.819 65.059,194.119 65.878 C 195.208 68.849,195.897 68.643,184.845 68.663 C 174.137 68.683,174.530 68.758,173.900 66.579 C 173.830 66.338,173.434 65.274,173.020 64.214 C 172.002 61.610,171.995 61.582,172.324 61.254 C 172.657 60.920,191.074 60.818,191.934 61.145 M237.323 61.263 C 237.666 61.607,237.612 62.005,237.005 63.601 C 236.766 64.227,236.296 65.485,235.960 66.397 C 235.559 67.485,235.209 68.147,234.942 68.324 C 234.447 68.654,216.977 68.832,216.146 68.517 C 215.428 68.243,215.471 67.979,216.820 64.389 C 217.073 63.714,217.365 62.865,217.467 62.502 C 217.569 62.139,217.885 61.647,218.170 61.407 L 218.687 60.972 227.859 60.972 C 236.174 60.972,237.059 61.000,237.323 61.263 M264.117 61.251 C 264.357 61.491,264.390 62.007,264.349 64.882 L 264.301 68.234 263.863 68.455 C 263.289 68.745,244.530 68.783,243.773 68.495 C 243.036 68.215,243.019 68.131,243.016 64.783 C 243.014 61.905,243.040 61.647,243.364 61.323 C 243.853 60.834,263.632 60.766,264.117 61.251 M387.283 68.262 C 387.977 68.528,385.976 72.232,383.943 74.446 L 383.041 75.427 340.175 75.472 C 310.719 75.503,297.202 75.460,296.968 75.334 C 296.497 75.082,296.439 68.895,296.903 68.431 C 297.184 68.150,386.555 67.983,387.283 68.262 M166.798 69.382 C 167.197 69.782,167.339 75.531,166.967 76.227 C 166.791 76.556,166.490 76.566,156.552 76.566 L 146.319 76.566 146.046 76.177 C 145.768 75.780,145.635 70.703,145.878 69.797 C 146.071 69.077,146.367 69.056,156.592 69.044 C 166.222 69.032,166.456 69.040,166.798 69.382 M195.192 69.490 C 195.743 70.041,197.826 75.858,197.614 76.254 C 197.399 76.657,178.312 76.746,177.794 76.347 C 177.537 76.148,175.909 72.242,175.909 71.823 C 175.909 71.726,175.751 71.337,175.558 70.959 C 175.135 70.129,175.116 69.675,175.488 69.303 C 175.987 68.804,194.683 68.981,195.192 69.490 M234.486 69.411 C 234.680 69.718,234.530 70.357,233.857 72.098 C 233.407 73.264,233.120 74.035,232.778 75.003 C 232.622 75.445,232.335 75.977,232.141 76.186 L 231.787 76.566 222.441 76.566 C 211.545 76.566,212.170 76.713,213.144 74.377 C 213.264 74.087,213.519 73.417,213.710 72.887 C 214.790 69.889,215.029 69.395,215.487 69.226 C 216.381 68.897,234.272 69.071,234.486 69.411 M264.114 69.307 C 264.470 69.663,264.528 76.006,264.179 76.356 C 263.807 76.728,243.749 76.651,243.334 76.276 C 243.047 76.016,243.014 75.667,243.014 72.893 C 243.014 69.747,243.083 69.379,243.714 69.154 C 244.458 68.888,263.840 69.034,264.114 69.307 M381.059 77.077 C 381.927 77.626,374.437 83.429,372.060 84.048 C 370.612 84.425,297.281 84.378,296.903 84.000 C 296.547 83.644,296.488 77.476,296.837 77.127 C 297.093 76.871,380.656 76.821,381.059 77.077 M166.798 77.442 C 167.197 77.841,167.339 83.591,166.967 84.287 C 166.791 84.616,166.490 84.625,156.552 84.625 L 146.319 84.625 146.046 84.236 C 145.768 83.840,145.635 78.763,145.878 77.856 C 146.071 77.136,146.367 77.116,156.592 77.103 C 166.222 77.092,166.456 77.100,166.798 77.442 M197.774 77.280 C 198.307 77.466,198.710 78.235,199.381 80.344 C 199.471 80.627,199.753 81.410,200.007 82.085 C 200.631 83.738,200.692 84.057,200.437 84.364 C 200.059 84.819,181.158 84.751,180.743 84.293 C 180.476 83.997,179.649 82.040,179.239 80.729 C 179.156 80.465,178.881 79.732,178.628 79.100 C 178.151 77.907,178.166 77.345,178.677 77.211 C 179.360 77.031,197.245 77.096,197.774 77.280 M231.236 77.364 C 231.753 77.726,231.755 77.712,230.764 80.427 C 229.589 83.645,229.256 84.381,228.912 84.513 C 228.243 84.769,210.128 84.639,209.910 84.376 C 209.683 84.102,209.827 83.521,210.695 81.209 C 210.948 80.534,211.260 79.655,211.389 79.256 C 211.758 78.112,212.163 77.437,212.580 77.269 C 213.335 76.965,230.793 77.054,231.236 77.364 M264.114 77.367 C 264.470 77.723,264.528 84.066,264.179 84.415 C 264.020 84.574,261.467 84.625,253.764 84.625 L 243.559 84.625 243.286 84.236 C 242.928 83.725,242.882 78.025,243.233 77.583 C 243.598 77.122,243.657 77.120,253.908 77.105 C 262.714 77.093,263.869 77.123,264.114 77.367 M166.798 85.502 C 167.276 85.979,167.341 91.942,166.873 92.410 C 166.629 92.654,165.442 92.685,156.458 92.685 L 146.319 92.685 146.046 92.296 C 145.768 91.899,145.635 86.823,145.878 85.916 C 146.071 85.196,146.367 85.175,156.592 85.163 C 166.222 85.151,166.456 85.159,166.798 85.502 M200.771 85.373 C 201.184 85.585,201.511 86.240,202.366 88.568 C 202.578 89.146,202.901 89.988,203.084 90.440 C 203.496 91.458,203.522 92.432,203.139 92.579 C 202.987 92.637,198.668 92.685,193.542 92.685 C 183.047 92.685,183.659 92.765,183.209 91.326 C 183.066 90.869,182.587 89.561,182.145 88.419 C 181.268 86.158,181.180 85.612,181.647 85.340 C 182.124 85.063,200.228 85.093,200.771 85.373 M228.308 85.332 C 228.852 85.624,228.869 85.551,227.169 90.145 C 226.812 91.108,226.354 92.074,226.151 92.291 L 225.782 92.685 216.445 92.685 C 205.608 92.685,206.436 92.847,207.181 90.870 C 207.626 89.687,208.162 88.164,208.670 86.640 C 209.185 85.094,208.784 85.152,219.065 85.151 C 224.868 85.151,228.087 85.214,228.308 85.332 M264.114 85.426 C 264.470 85.782,264.528 92.125,264.179 92.475 C 263.807 92.847,243.653 92.770,243.342 92.396 C 242.731 91.662,242.939 85.676,243.586 85.364 C 244.288 85.025,263.772 85.084,264.114 85.426 M367.040 85.835 C 367.672 86.235,364.082 87.544,360.984 88.043 C 360.068 88.190,358.956 88.392,358.512 88.492 C 356.305 88.986,349.854 89.174,334.900 89.177 C 317.812 89.181,319.256 89.040,319.103 90.729 C 318.946 92.462,319.852 92.335,307.726 92.335 C 298.370 92.335,297.147 92.304,296.903 92.059 C 296.548 91.705,296.490 86.234,296.837 85.887 C 297.091 85.633,366.640 85.582,367.040 85.835 M166.759 93.483 C 167.274 93.844,167.374 99.969,166.873 100.469 C 166.629 100.713,165.442 100.745,156.458 100.745 L 146.319 100.745 146.046 100.355 C 145.754 99.939,145.633 94.214,145.907 93.809 C 146.287 93.248,146.771 93.221,156.553 93.216 C 165.160 93.211,166.418 93.244,166.759 93.483 M203.917 93.654 C 204.207 93.899,204.535 94.372,204.645 94.706 C 204.952 95.637,205.607 95.379,205.992 94.174 C 206.300 93.212,206.257 93.216,215.949 93.213 C 227.098 93.210,226.173 92.860,224.806 96.567 C 223.615 99.799,223.295 100.501,222.955 100.632 C 222.544 100.789,187.254 100.769,187.014 100.611 C 186.792 100.464,186.182 99.300,185.983 98.642 C 185.910 98.401,185.506 97.319,185.085 96.237 C 184.239 94.063,184.174 93.663,184.625 93.400 C 184.823 93.285,188.219 93.219,194.161 93.216 L 203.390 93.211 203.917 93.654 M264.050 93.392 C 264.465 93.614,264.582 100.131,264.179 100.534 C 263.842 100.871,243.904 100.834,243.441 100.496 C 243.131 100.270,243.096 99.977,243.043 97.174 L 242.985 94.100 243.429 93.655 L 243.874 93.211 253.792 93.211 C 260.295 93.211,263.828 93.273,264.050 93.392 M318.844 93.947 C 319.281 94.384,319.124 99.800,318.664 100.121 C 318.071 100.537,297.319 100.535,296.903 100.119 C 296.548 99.764,296.490 94.294,296.837 93.947 C 297.141 93.643,318.540 93.643,318.844 93.947 M166.759 101.543 C 167.274 101.903,167.374 108.028,166.873 108.529 C 166.391 109.011,146.609 108.939,146.124 108.454 C 145.800 108.130,145.773 107.872,145.776 105.081 C 145.779 101.952,145.803 101.811,146.386 101.480 C 146.995 101.134,166.261 101.194,166.759 101.543 M222.351 101.452 C 222.791 101.687,222.774 101.980,222.236 103.460 C 221.991 104.135,221.708 104.923,221.607 105.212 C 220.820 107.473,220.356 108.423,219.952 108.607 C 219.238 108.932,190.466 108.882,189.998 108.555 C 189.303 108.068,187.185 102.035,187.563 101.618 C 187.926 101.216,221.610 101.055,222.351 101.452 M264.050 101.452 C 264.465 101.674,264.582 108.190,264.179 108.594 C 263.901 108.871,244.044 108.899,243.528 108.623 C 242.965 108.322,243.010 101.941,243.578 101.543 C 244.054 101.209,263.436 101.123,264.050 101.452 M318.844 102.006 C 319.281 102.443,319.124 107.859,318.664 108.181 C 318.071 108.597,297.319 108.594,296.903 108.178 C 296.548 107.824,296.490 102.353,296.837 102.006 C 297.141 101.702,318.540 101.702,318.844 102.006 M166.828 109.620 C 167.279 110.028,167.318 116.143,166.873 116.588 C 166.391 117.070,146.609 116.999,146.124 116.513 C 145.800 116.190,145.773 115.929,145.773 113.130 C 145.773 110.048,145.844 109.677,146.474 109.451 C 147.251 109.174,166.511 109.333,166.828 109.620 M219.372 109.511 C 219.883 109.785,219.641 110.854,218.342 114.060 C 218.245 114.301,217.990 114.955,217.776 115.512 C 217.224 116.952,218.050 116.864,205.107 116.864 C 192.147 116.864,192.997 116.934,192.522 115.831 C 190.901 112.066,190.268 109.804,190.758 109.519 C 191.185 109.270,218.907 109.262,219.372 109.511 M264.050 109.511 C 264.465 109.733,264.582 116.250,264.179 116.654 C 263.819 117.013,243.826 116.951,243.464 116.588 C 242.964 116.088,243.064 109.963,243.578 109.603 C 244.054 109.269,263.436 109.182,264.050 109.511 M318.861 110.097 C 319.000 110.264,319.047 111.331,319.014 113.553 L 318.966 116.766 318.528 116.988 C 317.804 117.353,297.543 117.310,297.017 116.941 C 296.557 116.619,296.397 110.506,296.837 110.066 C 297.169 109.734,318.585 109.765,318.861 110.097 M166.828 117.679 C 167.291 118.099,167.318 124.796,166.859 125.304 C 166.386 125.826,146.648 125.798,146.124 125.274 C 145.797 124.947,145.773 124.690,145.773 121.507 C 145.773 118.324,145.797 118.066,146.124 117.740 C 146.621 117.242,166.281 117.184,166.828 117.679 M216.556 117.651 C 216.855 118.011,216.738 118.487,215.611 121.507 C 214.422 124.695,214.352 124.834,213.814 125.079 C 213.269 125.328,197.164 125.353,196.516 125.106 C 195.954 124.892,195.767 124.518,194.484 121.049 C 193.340 117.953,193.330 117.910,193.640 117.600 C 193.988 117.251,216.265 117.301,216.556 117.651 M264.050 117.571 C 264.369 117.741,264.389 117.974,264.389 121.507 C 264.389 125.040,264.369 125.272,264.050 125.443 C 263.436 125.772,244.054 125.685,243.578 125.351 C 243.197 125.085,243.189 124.999,243.189 121.507 C 243.189 118.014,243.197 117.929,243.578 117.662 C 244.054 117.329,263.436 117.242,264.050 117.571 M318.528 118.667 L 318.966 118.889 318.966 121.857 L 318.966 124.825 318.528 125.047 C 317.805 125.413,297.543 125.370,297.017 125.001 C 296.641 124.738,296.627 124.625,296.627 121.857 C 296.627 119.089,296.641 118.976,297.017 118.713 C 297.543 118.345,317.805 118.301,318.528 118.667 M166.828 126.440 C 167.319 126.884,167.315 132.953,166.823 133.398 C 166.284 133.886,146.383 133.751,146.022 133.256 C 145.686 132.796,145.660 127.060,145.992 126.641 C 146.358 126.181,146.418 126.178,156.622 126.164 C 165.587 126.151,166.538 126.177,166.828 126.440 M264.050 126.331 C 264.367 126.501,264.389 126.730,264.389 129.917 C 264.389 133.103,264.367 133.333,264.050 133.502 C 263.436 133.831,244.054 133.745,243.578 133.411 C 243.200 133.146,243.189 133.047,243.189 129.917 C 243.189 126.786,243.200 126.688,243.578 126.423 C 244.054 126.089,263.436 126.002,264.050 126.331 M318.528 126.727 L 318.966 126.949 318.966 129.917 L 318.966 132.885 318.528 133.107 C 317.805 133.473,297.543 133.429,297.017 133.061 C 296.641 132.798,296.627 132.685,296.627 129.917 C 296.627 127.149,296.641 127.036,297.017 126.773 C 297.543 126.404,317.805 126.361,318.528 126.727 M166.828 134.499 C 167.342 134.964,167.312 141.229,166.794 141.747 C 166.348 142.194,146.534 142.224,146.088 141.779 C 145.648 141.339,145.669 135.014,146.113 134.570 C 146.620 134.063,166.272 133.996,166.828 134.499 M264.050 134.391 C 264.614 134.692,264.568 141.423,264.000 141.821 C 263.474 142.189,244.437 142.233,243.714 141.867 L 243.276 141.646 243.227 138.234 C 243.180 134.930,243.190 134.813,243.553 134.516 C 243.999 134.152,263.382 134.033,264.050 134.391 M318.528 134.786 L 318.966 135.008 319.014 138.397 C 319.047 140.748,319.000 141.860,318.861 142.027 C 318.585 142.360,297.169 142.390,296.837 142.059 C 296.396 141.617,296.556 135.155,297.017 134.833 C 297.543 134.464,317.804 134.420,318.528 134.786 M66.766 152.612 C 67.253 152.873,67.197 153.280,66.324 155.838 C 65.894 157.096,64.831 160.215,63.960 162.768 C 62.140 168.105,61.895 168.426,60.279 167.590 C 59.825 167.356,59.683 167.365,58.755 167.691 C 55.190 168.942,53.882 166.874,55.425 162.425 C 57.025 157.815,59.546 155.893,62.334 157.159 C 63.381 157.634,63.510 157.523,64.141 155.613 C 65.135 152.605,65.650 152.015,66.766 152.612 M134.747 152.612 C 135.334 152.927,135.503 152.300,132.288 161.717 C 130.121 168.066,129.875 168.426,128.270 167.596 C 127.778 167.341,127.659 167.348,126.605 167.694 C 122.471 169.052,121.505 165.695,124.387 159.986 C 125.703 157.380,128.123 156.198,130.176 157.160 C 131.348 157.709,131.405 157.656,132.196 155.300 C 133.088 152.646,133.668 152.035,134.747 152.612 M148.011 152.855 C 148.134 152.971,148.275 153.494,148.324 154.018 C 148.374 154.543,148.532 155.957,148.675 157.162 C 148.818 158.366,148.993 159.864,149.063 160.491 C 149.268 162.333,149.415 162.222,153.350 157.249 C 157.056 152.567,157.524 152.141,158.481 152.577 C 159.070 152.845,159.101 152.699,157.416 157.613 C 156.592 160.015,155.524 163.163,155.043 164.608 C 154.145 167.307,153.809 167.849,153.039 167.849 C 151.800 167.849,151.807 167.683,153.214 163.379 C 153.837 161.473,154.305 159.846,154.255 159.764 C 154.041 159.419,153.665 159.681,152.776 160.797 C 148.791 165.798,148.724 165.866,147.970 165.676 C 147.328 165.515,147.191 165.107,147.002 162.798 C 146.653 158.529,146.171 158.654,144.566 163.430 C 143.121 167.730,143.050 167.849,141.936 167.849 C 141.609 167.849,141.342 167.731,141.241 167.542 C 141.056 167.197,140.993 167.400,143.673 159.615 C 144.651 156.772,145.532 154.170,145.630 153.833 C 145.998 152.566,147.187 152.077,148.011 152.855 M314.574 152.706 C 314.933 153.066,315.052 152.589,313.337 157.673 C 309.518 168.991,309.842 168.397,307.928 167.598 C 307.386 167.371,307.231 167.380,306.361 167.685 C 302.880 168.909,301.506 166.859,302.978 162.638 C 304.662 157.809,307.046 155.932,309.921 157.169 C 311.073 157.664,311.122 157.621,311.842 155.460 C 312.800 152.586,313.623 151.756,314.574 152.706 M51.149 152.855 C 51.599 153.397,51.904 167.211,51.476 167.639 C 50.616 168.499,49.409 167.641,49.409 166.170 C 49.409 164.533,49.384 164.520,46.188 164.520 L 43.517 164.520 43.069 165.002 C 42.823 165.267,42.328 165.918,41.970 166.448 C 41.611 166.978,41.148 167.507,40.940 167.624 C 40.108 168.091,38.819 167.718,39.174 167.112 C 39.553 166.467,48.831 153.499,49.208 153.088 C 49.705 152.546,50.785 152.416,51.149 152.855 M281.114 153.058 C 283.817 154.475,282.435 159.264,278.744 161.271 C 277.846 161.760,277.648 161.794,275.215 161.884 C 272.184 161.997,272.391 161.857,271.562 164.345 C 270.437 167.718,270.181 168.066,269.032 167.777 C 268.467 167.636,268.464 167.199,269.018 165.533 C 270.108 162.250,273.328 152.918,273.424 152.762 C 273.654 152.391,280.332 152.648,281.114 153.058 M264.212 154.094 C 264.385 154.302,264.372 154.495,264.146 155.061 C 263.733 156.092,263.787 156.488,264.410 157.000 L 264.959 157.452 264.655 158.094 C 264.423 158.583,264.189 158.784,263.672 158.939 C 262.720 159.224,262.610 159.402,261.697 162.129 C 260.754 164.947,260.707 165.415,261.323 165.818 C 262.467 166.568,261.590 167.937,260.047 167.809 C 257.975 167.637,257.987 165.843,260.096 160.297 C 260.301 159.758,260.299 159.596,260.085 159.182 C 259.583 158.215,259.790 157.523,260.760 156.922 C 261.224 156.634,261.453 156.249,261.949 154.913 C 262.340 153.861,263.631 153.393,264.212 154.094 M342.528 154.091 C 342.699 154.297,342.685 154.518,342.462 155.174 C 342.082 156.290,342.099 156.405,342.727 156.979 C 343.380 157.575,343.270 158.322,342.474 158.695 C 342.217 158.815,341.795 159.012,341.536 159.133 C 341.135 159.320,340.932 159.736,340.146 161.980 C 339.059 165.080,339.046 165.199,339.728 165.807 C 340.725 166.695,340.129 167.849,338.674 167.849 C 336.585 167.849,336.394 166.737,337.783 162.647 C 338.659 160.065,338.852 159.042,338.502 158.826 C 338.142 158.604,338.315 157.671,338.787 157.280 C 339.840 156.409,340.051 156.122,340.324 155.183 C 340.693 153.911,341.888 153.320,342.528 154.091 M275.291 154.716 C 274.618 154.986,273.122 159.072,273.521 159.552 C 273.979 160.104,277.887 159.813,278.684 159.167 C 279.960 158.134,280.565 156.071,279.824 155.287 C 279.180 154.606,276.428 154.259,275.291 154.716 M85.746 157.314 C 87.326 158.204,87.325 159.151,85.738 163.840 C 84.349 167.943,84.232 168.098,82.802 167.715 C 82.214 167.558,81.882 167.553,81.521 167.696 C 79.924 168.328,77.257 167.772,76.771 166.707 C 75.579 164.089,78.634 161.367,82.764 161.367 C 83.971 161.367,84.103 161.330,84.438 160.905 C 85.509 159.543,84.020 158.432,81.871 158.989 C 80.719 159.287,80.333 159.230,80.061 158.722 C 79.382 157.452,83.973 156.315,85.746 157.314 M97.980 157.304 C 98.490 157.601,98.602 157.789,98.826 158.725 C 99.037 159.610,98.747 160.913,97.576 164.345 C 96.479 167.558,96.297 167.849,95.389 167.849 C 94.173 167.849,94.187 167.623,95.649 163.498 C 96.916 159.925,96.764 159.089,94.846 159.089 C 92.945 159.089,92.624 159.508,91.091 163.987 C 89.921 167.407,89.664 167.849,88.843 167.849 C 87.907 167.849,87.597 166.751,88.239 165.712 C 88.291 165.627,88.920 163.846,89.636 161.754 C 91.307 156.871,91.799 156.266,93.237 157.329 C 93.702 157.672,93.770 157.679,94.256 157.428 C 95.490 156.790,97.010 156.739,97.980 157.304 M109.855 157.385 C 110.509 157.708,110.653 157.869,110.697 158.324 C 110.790 159.278,109.207 159.975,108.376 159.346 C 107.423 158.625,105.097 159.173,104.270 160.314 C 101.698 163.864,103.021 167.024,106.409 165.424 C 107.398 164.957,108.103 165.197,108.103 166.001 C 108.103 167.520,103.470 168.582,101.778 167.452 C 100.245 166.427,100.204 164.533,101.642 161.079 C 103.096 157.587,106.848 155.900,109.855 157.385 M119.229 157.004 C 121.084 157.508,121.601 159.156,120.798 162.006 C 120.461 163.201,120.165 163.294,116.697 163.294 C 113.661 163.294,113.535 163.336,113.535 164.347 C 113.535 165.799,115.328 166.369,117.068 165.469 C 117.727 165.128,118.154 165.158,118.529 165.572 C 119.406 166.542,117.467 167.722,114.849 167.812 C 112.241 167.901,111.337 167.171,111.355 164.989 C 111.396 160.184,115.525 155.997,119.229 157.004 M166.951 157.294 C 168.619 158.126,168.637 159.077,167.072 163.749 C 165.604 168.130,166.043 167.750,162.397 167.801 C 158.626 167.853,157.862 167.534,157.862 165.905 C 157.862 163.428,159.913 161.608,162.901 161.436 C 165.673 161.277,166.299 160.966,166.027 159.883 C 165.749 158.778,164.723 158.489,162.947 159.017 C 161.807 159.355,161.191 159.168,161.191 158.483 C 161.191 157.263,165.219 156.432,166.951 157.294 M178.423 156.976 C 180.635 157.489,180.700 159.061,178.744 164.693 C 177.845 167.280,177.691 167.598,177.263 167.749 C 176.010 168.189,175.504 167.295,176.142 165.765 C 178.232 160.745,178.288 159.286,176.397 159.130 C 174.364 158.961,173.946 159.468,172.390 163.996 C 171.217 167.408,170.959 167.849,170.140 167.849 C 168.895 167.849,168.883 167.618,169.965 164.520 C 170.453 163.123,171.152 161.106,171.518 160.039 C 172.229 157.969,172.517 157.326,172.825 157.121 C 173.161 156.896,174.064 156.976,174.480 157.267 C 174.891 157.556,174.996 157.547,176.522 157.095 C 177.582 156.780,177.580 156.781,178.423 156.976 M200.917 157.362 L 201.658 157.716 202.170 157.351 C 202.841 156.873,203.692 156.870,203.946 157.344 C 204.301 158.007,200.866 167.690,199.617 169.549 C 197.836 172.200,192.779 173.192,191.816 171.080 C 191.362 170.083,192.902 169.285,193.995 169.951 C 195.461 170.845,197.524 170.046,198.253 168.302 C 198.632 167.396,198.436 167.282,197.214 167.696 C 193.994 168.787,192.505 166.753,193.710 162.909 C 195.256 157.979,197.915 155.932,200.917 157.362 M213.557 157.295 C 214.810 158.229,215.099 159.635,214.468 161.712 C 213.990 163.285,213.968 163.294,210.471 163.294 C 207.036 163.294,206.498 163.626,207.439 165.168 C 207.981 166.057,209.055 166.121,210.911 165.372 C 212.626 164.681,212.801 166.306,211.111 167.230 C 208.126 168.862,204.886 167.673,204.919 164.958 C 204.982 159.882,210.484 155.000,213.557 157.295 M225.044 156.980 C 225.439 157.071,225.948 157.369,226.235 157.676 C 226.859 158.344,227.130 158.346,228.119 157.690 C 229.238 156.947,230.449 156.706,231.528 157.011 C 233.539 157.579,233.612 158.921,231.908 163.993 C 230.737 167.477,230.524 167.849,229.698 167.849 C 228.473 167.849,228.471 167.678,229.665 164.147 C 231.135 159.795,231.056 159.088,229.098 159.090 C 227.291 159.091,226.803 159.745,225.353 164.111 C 224.144 167.749,224.088 167.842,223.105 167.847 C 221.881 167.853,221.892 167.677,223.369 163.469 C 224.640 159.848,224.569 159.274,222.832 159.130 C 220.870 158.967,220.446 159.489,218.923 163.943 C 217.764 167.331,217.461 167.849,216.640 167.849 C 215.520 167.849,215.453 167.482,216.189 165.367 C 216.468 164.564,217.187 162.488,217.786 160.753 C 219.158 156.785,219.508 156.419,221.132 157.259 C 221.606 157.505,221.735 157.505,222.394 157.267 C 223.700 156.795,224.074 156.755,225.044 156.980 M243.438 157.255 C 244.618 157.814,245.007 159.776,244.363 161.919 C 243.974 163.213,243.730 163.294,240.219 163.294 C 237.183 163.294,237.057 163.336,237.057 164.347 C 237.057 165.811,238.850 166.369,240.617 165.455 C 241.562 164.966,242.570 165.639,242.129 166.464 C 241.536 167.571,237.605 168.291,236.193 167.551 C 234.336 166.578,234.385 163.646,236.317 160.190 C 237.833 157.477,241.083 156.137,243.438 157.255 M255.716 157.319 C 257.010 158.054,256.935 159.492,255.362 164.114 C 254.081 167.878,253.707 168.334,252.448 167.660 C 252.008 167.424,252.023 167.357,253.272 163.863 C 254.672 159.945,254.528 159.089,252.469 159.089 C 250.694 159.089,250.299 159.627,248.774 164.120 C 247.636 167.472,247.424 167.849,246.680 167.849 C 245.325 167.849,245.334 167.640,246.883 163.136 C 247.566 161.151,248.236 159.163,248.372 158.719 C 248.881 157.056,249.954 156.494,251.019 157.332 C 251.422 157.649,251.501 157.656,251.961 157.418 C 253.194 156.781,254.698 156.741,255.716 157.319 M299.594 157.312 C 301.001 157.984,301.269 159.577,300.407 162.137 C 299.114 165.976,296.982 167.906,294.021 167.916 C 290.505 167.928,289.805 165.422,292.014 160.734 C 293.443 157.703,297.027 156.085,299.594 157.312 M334.293 157.002 C 336.053 157.379,336.673 158.378,335.638 159.168 C 334.982 159.668,334.421 159.723,333.771 159.352 C 331.900 158.282,329.756 159.499,328.789 162.178 C 327.606 165.459,328.900 166.715,332.046 165.336 C 332.653 165.070,332.708 165.074,333.141 165.414 C 334.563 166.533,332.244 167.938,329.164 167.822 C 326.627 167.727,325.930 166.988,326.115 164.589 C 326.508 159.503,330.160 156.116,334.293 157.002 M352.463 157.187 C 353.856 157.545,354.226 158.210,353.458 158.977 C 352.923 159.513,352.333 159.564,351.364 159.159 C 350.259 158.697,348.464 158.879,347.794 159.521 C 346.764 160.508,347.149 160.962,349.307 161.308 C 351.234 161.617,351.967 161.962,352.279 162.709 C 352.767 163.878,351.786 165.971,350.282 166.968 C 347.312 168.935,340.956 167.574,343.421 165.500 C 344.092 164.935,344.254 164.935,345.345 165.506 C 347.217 166.485,350.066 165.767,350.066 164.317 C 350.066 163.673,349.469 163.369,347.876 163.202 C 345.085 162.908,344.312 161.797,345.406 159.653 C 346.592 157.329,349.312 156.379,352.463 157.187 M69.938 157.276 C 70.223 157.535,70.258 157.878,70.258 160.409 C 70.258 164.686,70.298 164.686,73.192 160.418 C 75.475 157.051,76.340 156.344,77.082 157.238 C 77.367 157.581,77.391 157.541,73.732 162.654 C 68.678 169.716,68.453 169.732,68.213 163.031 C 68.020 157.660,68.025 157.515,68.421 157.226 C 68.865 156.901,69.549 156.924,69.938 157.276 M190.580 157.397 C 192.029 158.155,192.008 159.236,190.455 163.817 C 189.045 167.977,188.917 168.139,187.375 167.697 C 187.029 167.597,186.448 167.626,185.712 167.781 C 182.165 168.524,180.499 166.912,181.854 164.048 C 182.745 162.165,183.848 161.601,186.987 161.422 C 189.076 161.303,189.458 161.104,189.458 160.140 C 189.458 158.955,188.430 158.552,186.570 159.008 C 185.347 159.308,185.335 159.307,184.962 158.934 C 183.661 157.633,188.501 156.308,190.580 157.397 M286.378 157.337 C 286.552 157.530,286.804 157.687,286.937 157.687 C 287.071 157.687,287.489 157.530,287.867 157.337 C 288.690 156.917,290.427 156.858,290.939 157.232 C 291.701 157.789,290.291 159.412,289.290 159.130 C 286.815 158.435,285.860 159.414,284.168 164.378 C 283.113 167.475,282.888 167.849,282.087 167.849 C 280.922 167.849,280.945 167.559,282.449 163.157 C 283.131 161.160,283.801 159.163,283.938 158.719 C 284.439 157.092,285.574 156.449,286.378 157.337 M318.537 157.260 C 318.784 157.558,318.813 157.453,317.314 161.746 C 316.202 164.933,316.405 165.834,318.237 165.834 C 320.055 165.834,320.608 165.097,321.973 160.860 C 323.108 157.338,323.355 156.946,324.392 157.022 C 325.531 157.106,325.606 156.715,322.989 164.345 C 321.760 167.928,321.388 168.308,319.831 167.570 C 319.287 167.311,319.181 167.313,318.455 167.590 C 316.104 168.488,314.222 167.523,314.254 165.436 C 314.275 164.065,316.187 158.077,316.826 157.381 C 317.253 156.915,318.196 156.849,318.537 157.260 M48.240 157.556 C 47.393 158.501,45.352 161.710,45.409 162.008 C 45.463 162.290,45.681 162.336,47.158 162.380 C 49.501 162.449,49.484 162.471,49.322 159.627 C 49.167 156.907,49.040 156.664,48.240 157.556 M198.248 159.118 C 196.445 160.116,194.837 164.560,195.916 165.565 C 196.725 166.319,198.435 165.932,199.300 164.798 C 199.807 164.134,200.959 161.011,200.962 160.295 C 200.966 159.155,199.406 158.478,198.248 159.118 M296.032 159.087 C 294.095 159.700,292.327 164.266,293.553 165.492 C 294.570 166.509,296.613 165.720,297.519 163.959 C 299.336 160.426,298.672 158.252,296.032 159.087 M59.450 159.346 C 57.936 160.004,56.422 164.760,57.459 165.600 C 58.943 166.801,60.734 165.599,61.791 162.691 C 62.920 159.589,61.980 158.245,59.450 159.346 M115.866 159.432 C 114.031 160.551,114.479 161.491,116.864 161.522 C 118.653 161.545,119.660 160.398,118.780 159.339 C 118.456 158.948,116.559 159.009,115.866 159.432 M127.243 159.438 C 125.725 160.364,124.431 164.570,125.374 165.513 C 127.099 167.237,130.355 163.777,130.355 160.219 C 130.355 159.114,128.528 158.655,127.243 159.438 M209.776 159.211 C 208.966 159.369,208.144 160.638,208.494 161.191 C 208.772 161.632,212.123 161.566,212.454 161.114 C 213.410 159.806,211.973 158.785,209.776 159.211 M239.583 159.259 C 238.493 159.699,237.965 161.152,238.809 161.386 C 239.552 161.591,241.501 161.548,241.962 161.316 C 242.460 161.066,242.679 159.793,242.302 159.339 C 242.071 159.060,240.209 159.005,239.583 159.259 M307.209 159.251 C 306.201 159.684,304.687 162.866,304.687 164.552 C 304.687 166.311,307.305 166.405,308.573 164.693 C 308.957 164.174,310.118 160.842,310.118 160.259 C 310.118 159.319,308.420 158.730,307.209 159.251 M80.333 163.382 C 78.236 164.124,78.418 166.279,80.576 166.269 C 82.207 166.261,83.338 165.401,83.522 164.027 C 83.603 163.422,83.567 163.333,83.200 163.234 C 82.501 163.047,81.071 163.121,80.333 163.382 M161.600 163.311 C 160.389 163.662,159.745 165.160,160.509 165.851 C 161.808 167.024,164.871 165.607,164.871 163.833 C 164.871 163.163,163.092 162.879,161.600 163.311 M185.132 163.299 C 183.619 163.752,183.012 165.425,184.147 166.012 C 185.814 166.874,188.349 165.559,188.349 163.833 C 188.349 163.172,186.550 162.874,185.132 163.299 " stroke="none" fill="#ffffff" fill-rule="evenodd"></path></g></svg>