<svg id="svg" version="1.1" width="961" height="445" xmlns="http://www.w3.org/2000/svg" xmlns:xlink="http://www.w3.org/1999/xlink" ><g id="svgg"><path id="path0" d="M90.542 8.845 C 90.336 9.473,57.784 148.626,57.704 149.220 C 57.668 149.486,61.653 149.676,68.752 149.747 L 79.855 149.857 80.290 147.665 C 80.530 146.460,81.690 140.461,82.870 134.334 L 85.014 123.194 99.619 123.304 L 114.224 123.413 116.740 136.524 L 119.257 149.636 130.388 149.747 C 136.510 149.808,141.526 149.714,141.535 149.539 C 141.544 149.363,134.099 117.519,124.990 78.774 L 108.429 8.328 99.571 8.326 C 92.852 8.325,90.671 8.450,90.542 8.845 M152.758 12.279 L 152.758 16.233 164.399 16.233 C 173.521 16.233,176.005 16.121,175.878 15.713 C 175.789 15.427,175.217 13.647,174.608 11.759 L 173.501 8.325 163.129 8.325 L 152.758 8.325 152.758 12.279 M224.383 11.550 C 223.852 13.325,223.324 15.104,223.211 15.505 C 223.017 16.186,223.740 16.233,234.291 16.233 L 245.578 16.233 245.578 12.279 L 245.578 8.325 235.463 8.325 L 225.349 8.325 224.383 11.550 M263.476 12.042 L 263.476 15.817 293.919 15.817 L 324.363 15.817 322.535 14.345 C 315.913 9.012,313.719 8.653,286.472 8.444 L 263.476 8.268 263.476 12.042 M152.758 20.597 L 152.758 24.558 165.669 24.558 L 178.580 24.558 178.297 23.413 C 178.141 22.784,177.605 21.051,177.106 19.563 L 176.198 16.857 164.478 16.747 L 152.758 16.636 152.758 20.597 M221.854 19.459 C 221.360 21.004,220.792 22.784,220.593 23.413 L 220.231 24.558 232.904 24.558 L 245.578 24.558 245.578 20.604 L 245.578 16.649 234.165 16.649 L 222.753 16.649 221.854 19.459 M263.476 20.604 L 263.476 24.142 296.774 24.142 C 315.088 24.142,330.073 23.983,330.073 23.790 C 330.073 23.439,327.320 19.177,326.200 17.794 C 325.648 17.112,323.629 17.066,294.543 17.066 L 263.476 17.066 263.476 20.604 M152.758 28.928 L 152.758 32.882 166.909 32.882 C 174.693 32.882,181.061 32.760,181.061 32.610 C 181.061 32.460,180.564 30.681,179.956 28.656 L 178.851 24.974 165.805 24.974 L 152.758 24.974 152.758 28.928 M219.969 25.494 C 219.229 27.500,217.690 32.258,217.690 32.539 C 217.690 32.728,223.965 32.882,231.634 32.882 L 245.578 32.882 245.578 28.928 L 245.578 24.974 232.869 24.974 C 223.083 24.974,220.117 25.094,219.969 25.494 M263.476 28.928 L 263.476 32.466 274.506 32.466 L 285.536 32.466 285.536 30.801 L 285.536 29.136 294.403 29.136 C 303.735 29.136,306.961 29.795,307.754 31.860 C 307.950 32.372,309.904 32.466,320.278 32.466 C 334.381 32.466,333.196 32.914,331.721 28.140 L 330.872 25.390 297.174 25.390 L 263.476 25.390 263.476 28.928 M152.758 37.253 L 152.758 41.207 168.356 41.207 L 183.954 41.207 183.593 40.255 C 183.394 39.732,182.828 37.953,182.337 36.301 L 181.442 33.299 167.100 33.299 L 152.758 33.299 152.758 37.253 M216.153 37.253 L 214.850 41.207 230.214 41.207 L 245.578 41.207 245.578 37.253 L 245.578 33.299 231.516 33.299 L 217.455 33.299 216.153 37.253 M263.476 37.253 L 263.476 40.791 274.506 40.791 L 285.536 40.791 285.536 37.253 L 285.536 33.715 274.506 33.715 L 263.476 33.715 263.476 37.253 M309.956 35.276 C 310.315 36.134,310.729 37.680,310.876 38.710 L 311.144 40.583 322.273 40.694 L 333.403 40.804 333.398 38.821 C 333.396 37.729,333.277 36.134,333.136 35.276 L 332.878 33.715 321.091 33.715 L 309.304 33.715 309.956 35.276 M152.758 45.573 L 152.758 49.532 169.615 49.532 C 178.887 49.532,186.469 49.485,186.464 49.428 C 186.459 49.370,185.926 47.638,185.279 45.578 L 184.102 41.831 168.430 41.722 L 152.758 41.613 152.758 45.573 M214.638 41.935 C 214.534 42.107,214.050 43.559,213.561 45.161 C 213.072 46.764,212.571 48.403,212.447 48.803 C 212.236 49.489,213.209 49.532,228.900 49.532 L 245.578 49.532 245.578 45.578 L 245.578 41.623 230.201 41.623 C 221.745 41.623,214.741 41.764,214.638 41.935 M263.476 45.578 L 263.476 49.116 274.506 49.116 L 285.536 49.116 285.536 45.578 L 285.536 42.040 274.506 42.040 L 263.476 42.040 263.476 45.578 M311.342 45.578 L 311.342 49.116 322.373 49.116 L 333.403 49.116 333.403 45.578 L 333.403 42.040 322.373 42.040 L 311.342 42.040 311.342 45.578 M104.883 75.130 C 107.652 89.553,110.016 101.681,110.137 102.081 C 110.343 102.762,109.658 102.810,99.716 102.810 C 92.417 102.810,89.074 102.669,89.074 102.363 C 89.074 101.764,99.040 49.967,99.359 48.907 C 99.687 47.821,99.163 45.336,104.883 75.130 M152.758 53.902 L 152.758 57.856 170.912 57.856 C 188.002 57.856,189.055 57.814,188.865 57.128 C 188.753 56.727,188.216 54.950,187.671 53.178 L 186.681 49.956 169.719 49.952 L 152.758 49.948 152.758 53.902 M210.742 53.902 L 209.439 57.856 227.508 57.856 L 245.578 57.856 245.578 53.902 L 245.578 49.948 228.811 49.948 L 212.044 49.948 210.742 53.902 M263.476 53.902 L 263.476 57.440 274.506 57.440 L 285.536 57.440 285.536 53.902 L 285.536 50.364 274.506 50.364 L 263.476 50.364 263.476 53.902 M311.342 53.902 L 311.342 57.440 322.373 57.440 L 333.403 57.440 333.403 53.902 L 333.403 50.364 322.373 50.364 L 311.342 50.364 311.342 53.902 M152.758 62.227 L 152.758 66.181 162.955 66.181 L 173.153 66.181 173.185 64.620 L 173.216 63.059 173.742 64.516 L 174.267 65.973 182.867 66.085 C 189.383 66.171,191.467 66.076,191.467 65.694 C 191.467 65.417,190.960 63.634,190.341 61.731 L 189.214 58.273 170.986 58.273 L 152.758 58.273 152.758 62.227 M208.298 61.707 C 207.673 63.595,207.074 65.379,206.967 65.670 C 206.813 66.089,208.527 66.175,215.230 66.086 L 223.689 65.973 224.811 62.435 L 225.933 58.897 225.974 62.539 L 226.015 66.181 235.796 66.181 L 245.578 66.181 245.578 62.227 L 245.578 58.273 227.506 58.273 L 209.434 58.273 208.298 61.707 M263.476 62.227 L 263.476 65.765 274.506 65.765 L 285.536 65.765 285.536 62.227 L 285.536 58.689 274.506 58.689 L 263.476 58.689 263.476 62.227 M311.342 60.296 C 311.342 61.179,311.223 62.772,311.078 63.834 L 310.813 65.765 322.108 65.765 L 333.403 65.765 333.403 62.227 L 333.403 58.689 322.373 58.689 L 311.342 58.689 311.342 60.296 M152.758 70.552 L 152.758 74.506 162.955 74.506 L 173.153 74.506 173.153 70.552 L 173.153 66.597 162.955 66.597 L 152.758 66.597 152.758 70.552 M174.590 67.118 C 174.679 67.404,175.251 69.183,175.860 71.072 L 176.967 74.506 185.652 74.506 L 194.338 74.506 193.975 73.361 C 193.776 72.732,193.208 70.952,192.714 69.407 L 191.816 66.597 183.122 66.597 C 176.357 66.597,174.464 66.713,174.590 67.118 M205.485 70.321 C 204.872 72.370,204.370 74.153,204.370 74.284 C 204.370 74.416,208.143 74.472,212.754 74.410 L 221.137 74.298 221.642 72.633 C 221.919 71.717,222.445 69.984,222.810 68.783 L 223.472 66.597 215.036 66.597 L 206.600 66.597 205.485 70.321 M226.015 70.552 L 226.015 74.506 235.796 74.506 L 245.578 74.506 245.578 70.552 L 245.578 66.597 235.796 66.597 L 226.015 66.597 226.015 70.552 M263.476 70.552 L 263.476 74.089 274.506 74.089 L 285.536 74.089 285.536 70.552 L 285.536 67.014 274.506 67.014 L 263.476 67.014 263.476 70.552 M309.490 69.366 C 308.621 71.028,307.713 72.064,306.391 72.903 L 304.520 74.089 318.309 74.089 C 333.852 74.089,332.287 74.472,332.790 70.552 C 332.936 69.407,333.147 68.143,333.258 67.742 C 333.446 67.061,332.717 67.014,322.088 67.015 L 310.718 67.016 309.490 69.366 M152.758 78.876 L 152.758 82.830 162.955 82.830 L 173.153 82.830 173.153 78.876 L 173.153 74.922 162.955 74.922 L 152.758 74.922 152.758 78.876 M177.315 75.409 C 177.315 75.686,177.822 77.469,178.442 79.372 L 179.568 82.830 188.223 82.830 C 192.983 82.830,196.875 82.784,196.872 82.726 C 196.868 82.669,196.343 80.937,195.705 78.876 L 194.544 75.130 185.930 75.018 C 179.403 74.932,177.315 75.027,177.315 75.409 M202.887 78.356 C 202.262 80.245,201.665 82.024,201.559 82.310 C 201.410 82.716,203.256 82.830,209.932 82.830 L 218.496 82.830 219.599 79.188 C 220.206 77.185,220.785 75.406,220.886 75.234 C 220.986 75.062,217.233 74.922,212.546 74.922 L 204.023 74.922 202.887 78.356 M226.015 78.876 L 226.015 82.830 235.796 82.830 L 245.578 82.830 245.578 78.876 L 245.578 74.922 235.796 74.922 L 226.015 74.922 226.015 78.876 M263.476 78.879 L 263.476 82.419 296.016 82.313 L 328.556 82.206 329.553 80.208 C 330.101 79.109,330.819 77.563,331.149 76.774 L 331.749 75.338 297.612 75.338 L 263.476 75.338 263.476 78.879 M152.758 87.201 L 152.758 91.155 162.955 91.155 L 173.153 91.155 173.153 87.201 L 173.153 83.247 162.955 83.247 L 152.758 83.247 152.758 87.201 M180.080 84.391 C 180.235 85.021,180.771 86.753,181.271 88.241 L 182.179 90.947 199.051 91.056 L 215.924 91.164 217.015 87.665 C 217.615 85.740,218.106 83.955,218.106 83.697 C 218.106 83.363,215.712 83.261,209.696 83.342 L 201.285 83.455 200.214 86.973 L 199.142 90.492 198.684 88.847 C 198.431 87.941,197.991 86.311,197.706 85.224 L 197.186 83.247 188.492 83.247 L 179.797 83.247 180.080 84.391 M226.015 87.201 L 226.015 91.155 235.796 91.155 L 245.578 91.155 245.578 87.201 L 245.578 83.247 235.796 83.247 L 226.015 83.247 226.015 87.201 M263.476 87.201 L 263.476 90.739 291.371 90.739 L 319.267 90.739 320.820 89.750 C 322.868 88.445,326.234 85.446,326.766 84.453 C 327.179 83.680,326.488 83.663,295.332 83.663 L 263.476 83.663 263.476 87.201 M152.758 95.525 L 152.758 99.480 162.955 99.480 L 173.153 99.480 173.153 95.525 L 173.153 91.571 162.955 91.571 L 152.758 91.571 152.758 95.525 M182.499 92.092 C 182.588 92.378,183.159 94.157,183.768 96.046 L 184.876 99.480 199.137 99.480 L 213.399 99.480 214.504 95.798 C 215.112 93.773,215.609 91.993,215.609 91.844 C 215.609 91.694,208.122 91.571,198.972 91.571 C 185.854 91.571,182.371 91.681,182.499 92.092 M226.015 95.525 L 226.015 99.480 235.796 99.480 L 245.578 99.480 245.578 95.525 L 245.578 91.571 235.796 91.571 L 226.015 91.571 226.015 95.525 M263.476 95.525 L 263.476 99.063 274.506 99.063 L 285.536 99.063 285.536 97.021 L 285.536 94.979 297.086 94.788 C 308.816 94.593,311.172 94.298,315.505 92.477 C 316.248 92.165,308.954 92.033,290.010 92.014 L 263.476 91.988 263.476 95.525 M152.758 103.850 L 152.758 107.804 162.955 107.804 L 173.153 107.804 173.153 103.850 L 173.153 99.896 162.955 99.896 L 152.758 99.896 152.758 103.850 M185.224 100.391 C 185.224 100.664,185.731 102.443,186.350 104.346 L 187.476 107.804 199.170 107.804 L 210.863 107.804 211.829 104.579 C 212.360 102.804,212.888 101.025,213.002 100.624 C 213.196 99.941,212.343 99.896,199.216 99.896 C 188.673 99.896,185.224 100.018,185.224 100.391 M226.015 103.850 L 226.015 107.804 235.796 107.804 L 245.578 107.804 245.578 103.850 L 245.578 99.896 235.796 99.896 L 226.015 99.896 226.015 103.850 M263.476 103.850 L 263.476 107.388 274.506 107.388 L 285.536 107.388 285.536 103.850 L 285.536 100.312 274.506 100.312 L 263.476 100.312 263.476 103.850 M152.758 112.175 L 152.758 116.129 162.955 116.129 L 173.153 116.129 173.153 112.175 L 173.153 108.221 162.955 108.221 L 152.758 108.221 152.758 112.175 M187.988 109.365 C 188.144 109.995,188.680 111.727,189.179 113.215 L 190.088 115.921 199.193 115.921 L 208.299 115.921 209.424 112.383 C 210.043 110.437,210.564 108.704,210.582 108.533 C 210.599 108.361,205.459 108.221,199.160 108.221 L 187.705 108.221 187.988 109.365 M226.015 112.175 L 226.015 116.129 235.796 116.129 L 245.578 116.129 245.578 112.175 L 245.578 108.221 235.796 108.221 L 226.015 108.221 226.015 112.175 M263.476 112.175 L 263.476 115.713 274.506 115.713 L 285.536 115.713 285.536 112.175 L 285.536 108.637 274.506 108.637 L 263.476 108.637 263.476 112.175 M152.758 120.499 L 152.758 124.454 162.955 124.454 L 173.153 124.454 173.153 120.499 L 173.153 116.545 162.955 116.545 L 152.758 116.545 152.758 120.499 M190.407 117.066 C 190.496 117.352,191.069 119.136,191.680 121.030 L 192.791 124.474 199.269 124.360 L 205.746 124.246 206.923 120.499 C 207.570 118.439,208.103 116.707,208.108 116.649 C 208.113 116.592,204.095 116.545,199.181 116.545 C 192.223 116.545,190.281 116.660,190.407 117.066 M226.015 120.499 L 226.015 124.454 235.796 124.454 L 245.578 124.454 245.578 120.499 L 245.578 116.545 235.796 116.545 L 226.015 116.545 226.015 120.499 M263.476 120.499 L 263.476 124.037 274.506 124.037 L 285.536 124.037 285.536 120.499 L 285.536 116.961 274.506 116.961 L 263.476 116.961 263.476 120.499 M152.758 128.824 L 152.758 132.778 162.955 132.778 L 173.153 132.778 173.153 128.824 L 173.153 124.870 162.955 124.870 L 152.758 124.870 152.758 128.824 M226.015 128.824 L 226.015 132.778 235.796 132.778 L 245.578 132.778 245.578 128.824 L 245.578 124.870 235.796 124.870 L 226.015 124.870 226.015 128.824 M263.476 128.824 L 263.476 132.362 274.506 132.362 L 285.536 132.362 285.536 128.824 L 285.536 125.286 274.506 125.286 L 263.476 125.286 263.476 128.824 M152.758 137.149 L 152.758 141.103 162.955 141.103 L 173.153 141.103 173.153 137.149 L 173.153 133.195 162.955 133.195 L 152.758 133.195 152.758 137.149 M226.015 137.149 L 226.015 141.103 235.796 141.103 L 245.578 141.103 245.578 137.149 L 245.578 133.195 235.796 133.195 L 226.015 133.195 226.015 137.149 M263.476 137.149 L 263.476 140.687 274.506 140.687 L 285.536 140.687 285.536 137.149 L 285.536 133.611 274.506 133.611 L 263.476 133.611 263.476 137.149 M152.847 145.578 L 152.966 149.636 162.955 149.636 L 172.945 149.636 173.064 145.578 L 173.183 141.519 162.955 141.519 L 152.727 141.519 152.847 145.578 M226.015 145.682 L 226.015 149.844 235.796 149.844 L 245.578 149.844 245.578 145.682 L 245.578 141.519 235.796 141.519 L 226.015 141.519 226.015 145.682 M263.564 145.786 L 263.684 149.636 274.506 149.636 L 285.328 149.636 285.447 145.786 L 285.567 141.935 274.506 141.935 L 263.444 141.935 263.564 145.786 M11.028 167.421 C 3.346 178.275,3.635 177.732,5.536 177.732 C 6.813 177.732,7.186 177.469,8.493 175.650 L 9.988 173.569 13.735 173.569 L 17.482 173.569 17.482 175.675 L 17.482 177.782 19.043 177.653 L 20.604 177.523 20.476 169.199 C 20.249 154.455,20.210 154.448,11.028 167.421 M36.670 159.105 C 36.476 159.620,35.978 161.117,35.565 162.432 C 34.881 164.609,34.753 164.766,34.127 164.201 C 30.623 161.029,23.725 168.013,23.725 174.734 C 23.725 177.147,26.953 178.451,29.573 177.096 C 30.684 176.522,30.801 176.524,30.801 177.123 C 30.801 177.618,31.141 177.752,32.154 177.654 L 33.507 177.523 36.718 168.158 C 40.495 157.143,40.313 158.169,38.491 158.169 C 37.352 158.169,36.945 158.378,36.670 159.105 M120.523 160.562 C 119.143 164.954,119.130 164.975,118.388 164.233 C 114.971 160.816,108.221 167.611,108.221 174.467 C 108.221 177.355,111.458 178.832,113.955 177.084 C 114.793 176.497,114.880 176.497,114.880 177.084 C 114.880 177.547,115.296 177.732,116.337 177.732 C 117.138 177.732,117.794 177.681,117.794 177.618 C 117.794 177.556,119.199 173.424,120.916 168.435 C 124.536 157.916,124.494 158.169,122.657 158.169 C 121.340 158.169,121.241 158.280,120.523 160.562 M136.951 159.521 C 135.062 164.763,131.113 176.719,131.113 177.199 C 131.113 177.609,131.519 177.745,132.466 177.654 C 133.807 177.525,133.835 177.476,135.692 172.041 C 138.026 165.211,138.025 165.211,138.380 169.938 C 138.870 176.470,139.795 176.529,144.581 170.335 C 146.398 167.983,147.934 166.110,147.995 166.172 C 148.056 166.234,147.279 168.697,146.269 171.644 C 144.071 178.058,144.094 177.732,145.836 177.732 L 147.238 177.732 150.414 168.404 C 154.086 157.619,153.989 158.161,152.237 158.193 C 151.000 158.216,150.499 158.715,146.354 164.059 C 141.757 169.986,141.125 170.420,141.109 167.653 C 141.106 167.031,140.889 164.643,140.628 162.346 L 140.153 158.169 138.796 158.169 C 137.642 158.169,137.365 158.371,136.951 159.521 M292.037 167.535 C 288.313 178.536,288.506 177.396,290.394 177.236 C 291.909 177.108,291.932 177.079,293.029 173.777 L 294.136 170.447 297.640 170.203 C 303.789 169.773,306.971 166.812,306.681 161.791 C 306.507 158.786,305.273 158.170,299.425 158.169 L 295.209 158.169 292.037 167.535 M343.850 159.105 C 343.656 159.620,343.158 161.117,342.745 162.432 C 342.061 164.609,341.933 164.766,341.307 164.201 C 337.803 161.029,330.905 168.013,330.905 174.734 C 330.905 177.141,334.243 178.482,336.850 177.122 C 337.487 176.790,337.898 176.697,337.762 176.917 C 337.621 177.145,338.214 177.315,339.149 177.315 L 340.782 177.315 343.963 168.054 C 345.713 162.960,347.143 158.652,347.142 158.481 C 347.133 157.640,344.193 158.198,343.850 159.105 M281.001 161.517 C 280.671 162.617,280.163 163.328,279.535 163.566 C 279.006 163.767,278.457 164.368,278.314 164.900 C 277.938 166.305,277.977 166.493,278.642 166.493 C 279.115 166.493,278.995 167.217,278.063 169.975 C 276.258 175.315,276.186 175.874,277.184 176.872 C 278.445 178.133,280.451 178.022,280.968 176.664 C 281.551 175.131,281.478 174.818,280.541 174.818 C 279.482 174.818,279.473 174.903,280.992 170.344 C 282.143 166.888,282.379 166.493,283.291 166.493 C 283.999 166.493,284.431 166.169,284.714 165.426 C 285.297 163.892,285.224 163.580,284.287 163.580 C 283.294 163.580,283.306 163.689,284.061 161.551 L 284.667 159.834 283.086 159.834 C 281.600 159.834,281.475 159.934,281.001 161.517 M378.643 160.146 C 378.545 160.317,378.239 161.160,377.962 162.019 C 377.621 163.076,377.211 163.580,376.692 163.580 C 375.747 163.580,375.060 166.000,375.864 166.497 C 376.251 166.736,376.058 167.765,375.076 170.712 C 373.140 176.524,373.229 177.085,376.154 177.552 C 377.758 177.809,377.847 177.764,378.300 176.465 C 378.889 174.774,378.893 174.818,378.172 174.818 C 377.016 174.818,377.057 173.935,378.382 170.229 C 379.531 167.018,379.851 166.493,380.661 166.493 C 381.345 166.493,381.730 166.132,382.061 165.182 C 382.646 163.504,382.666 163.580,381.641 163.580 C 380.729 163.580,380.731 163.623,381.523 160.770 C 381.783 159.833,379.147 159.262,378.643 160.146 M303.196 161.736 C 304.316 162.856,303.077 165.953,301.158 166.827 C 300.004 167.354,295.525 167.525,295.525 167.043 C 295.525 166.888,295.937 165.483,296.440 163.921 L 297.354 161.082 299.948 161.082 C 301.751 161.082,302.741 161.282,303.196 161.736 M17.338 170.522 C 17.241 170.619,16.008 170.641,14.597 170.573 L 12.032 170.447 14.653 166.627 L 17.274 162.807 17.394 166.576 C 17.460 168.649,17.435 170.425,17.338 170.522 M40.520 167.390 C 40.669 169.485,40.791 172.588,40.791 174.284 L 40.791 177.368 42.114 177.238 C 43.294 177.121,43.944 176.411,48.132 170.656 C 53.497 163.282,53.365 163.577,51.301 163.587 C 49.779 163.594,49.667 163.706,46.826 168.033 L 43.913 172.472 43.794 168.026 L 43.676 163.580 41.963 163.580 L 40.250 163.580 40.520 167.390 M56.218 164.436 L 54.371 165.274 55.212 166.115 C 55.976 166.879,56.232 166.911,57.997 166.467 C 60.219 165.907,61.186 166.354,61.186 167.941 C 61.186 168.801,60.948 168.889,57.991 169.112 C 54.223 169.397,53.073 170.071,51.703 172.799 C 50.047 176.097,51.768 178.101,55.775 177.543 C 56.805 177.399,58.426 177.297,59.377 177.316 L 61.106 177.349 62.811 172.233 C 64.809 166.238,64.835 165.942,63.494 164.601 C 62.176 163.283,58.923 163.209,56.218 164.436 M67.108 170.149 C 64.529 177.937,64.595 177.315,66.343 177.315 L 67.754 177.315 69.315 172.754 C 71.090 167.570,72.031 166.365,74.148 166.568 C 76.082 166.753,76.113 167.798,74.338 173.049 L 72.896 177.315 74.438 177.315 L 75.980 177.315 77.540 172.633 C 80.186 164.687,78.546 161.469,73.248 164.209 C 72.162 164.770,72.057 164.770,72.272 164.209 C 72.462 163.714,72.169 163.580,70.898 163.580 L 69.283 163.580 67.108 170.149 M86.317 164.240 C 82.338 166.203,79.465 173.489,81.600 176.203 C 83.748 178.935,91.854 177.263,90.324 174.404 C 89.996 173.792,89.620 173.595,89.146 173.788 C 84.496 175.677,83.210 174.602,84.743 170.105 C 85.823 166.935,88.792 165.490,90.963 167.078 C 91.870 167.741,94.069 166.579,94.069 165.435 C 94.069 163.794,88.851 162.990,86.317 164.240 M99.484 164.352 C 96.740 165.823,94.069 170.586,94.069 174.007 C 94.069 177.665,99.733 178.979,103.245 176.135 C 104.324 175.261,103.603 173.307,102.394 173.830 C 99.873 174.919,98.638 174.993,97.752 174.107 C 96.051 172.407,96.911 171.904,101.523 171.904 C 106.118 171.904,105.989 171.977,106.546 169.043 C 107.450 164.277,103.953 161.955,99.484 164.352 M156.991 164.472 L 155.189 165.364 156.034 166.209 C 156.799 166.974,157.040 167.005,158.583 166.543 C 160.858 165.861,161.915 166.231,161.915 167.710 C 161.915 168.845,161.853 168.875,159.005 169.114 C 154.302 169.508,151.925 171.427,151.925 174.828 C 151.925 177.469,152.864 177.760,159.797 177.267 L 162.049 177.107 163.647 172.334 C 165.524 166.727,165.581 165.959,164.223 164.601 C 162.866 163.244,159.590 163.186,156.991 164.472 M170.019 164.100 C 169.611 165.190,165.661 177.083,165.661 177.221 C 165.661 177.300,166.342 177.307,167.174 177.236 L 168.687 177.107 170.255 172.545 C 171.927 167.677,172.826 166.493,174.849 166.493 C 176.894 166.493,176.990 167.491,175.413 172.334 C 173.683 177.649,173.682 177.315,175.420 177.315 L 176.855 177.315 178.542 172.130 C 180.500 166.113,180.499 166.117,179.366 164.676 C 178.351 163.385,175.968 163.179,173.976 164.209 C 172.890 164.770,172.785 164.770,173.001 164.209 C 173.189 163.718,172.908 163.580,171.728 163.580 C 170.895 163.580,170.126 163.814,170.019 164.100 M186.160 164.401 C 183.338 165.682,184.820 167.519,187.865 166.514 C 189.704 165.907,191.051 166.495,191.051 167.905 C 191.051 168.809,190.850 168.886,187.902 169.109 C 180.610 169.660,177.619 177.636,184.767 177.469 C 186.048 177.439,187.972 177.395,189.042 177.371 L 190.986 177.328 191.804 175.137 C 193.077 171.725,194.381 167.321,194.381 166.430 C 194.381 163.815,189.892 162.707,186.160 164.401 M200.373 164.371 C 198.211 165.689,195.630 171.263,195.630 174.611 C 195.630 177.411,198.517 178.628,201.500 177.085 L 202.750 176.439 202.106 177.684 C 200.866 180.081,198.369 180.953,196.803 179.536 C 195.196 178.082,192.760 180.458,194.290 181.988 C 196.300 183.998,201.811 182.705,203.977 179.715 C 204.923 178.410,209.781 165.164,209.781 163.891 C 209.781 163.383,206.951 163.537,206.779 164.056 C 206.660 164.413,206.398 164.413,205.731 164.056 C 204.386 163.336,201.822 163.487,200.373 164.371 M215.602 164.350 C 212.810 165.834,210.198 170.544,210.198 174.093 C 210.198 177.666,215.912 178.938,219.374 176.135 C 220.453 175.261,219.732 173.307,218.523 173.830 C 216.122 174.868,214.805 174.973,213.947 174.196 C 212.187 172.604,212.962 172.130,217.694 171.904 L 222.060 171.696 222.542 169.255 C 223.536 164.220,220.236 161.888,215.602 164.350 M225.693 170.149 C 223.113 177.940,223.178 177.315,224.940 177.315 L 226.362 177.315 227.868 172.795 C 229.532 167.801,230.516 166.493,232.610 166.493 C 234.766 166.493,234.517 168.858,231.521 176.823 C 231.368 177.230,231.721 177.338,232.883 177.240 L 234.452 177.107 236.020 172.545 C 237.744 167.526,238.661 166.371,240.759 166.576 C 242.562 166.752,242.574 167.892,240.831 173.049 L 239.389 177.315 240.936 177.315 L 242.483 177.315 244.030 172.614 C 245.848 167.090,245.991 165.165,244.652 164.228 C 243.292 163.275,240.935 163.419,239.256 164.559 L 237.812 165.539 236.940 164.559 C 235.891 163.382,233.689 163.249,231.760 164.246 C 230.579 164.857,230.493 164.857,230.728 164.246 C 230.934 163.708,230.683 163.580,229.426 163.580 L 227.868 163.580 225.693 170.149 M252.862 164.212 C 248.780 166.262,245.930 173.662,248.203 176.305 C 250.524 179.003,258.716 177.023,256.630 174.268 C 256.097 173.564,255.967 173.556,254.792 174.164 C 253.112 175.033,251.690 174.990,250.835 174.046 C 249.389 172.448,250.306 171.942,254.878 171.814 L 259.105 171.696 259.639 169.615 C 260.903 164.691,257.426 161.919,252.862 164.212 M262.737 170.149 C 260.158 177.937,260.225 177.315,261.973 177.315 L 263.384 177.315 264.945 172.754 C 266.720 167.570,267.661 166.365,269.778 166.568 C 271.712 166.753,271.742 167.798,269.968 173.049 L 268.525 177.315 270.068 177.315 L 271.610 177.315 273.169 172.633 C 275.815 164.687,274.175 161.469,268.877 164.209 C 267.791 164.770,267.686 164.770,267.902 164.209 C 268.092 163.714,267.798 163.580,266.528 163.580 L 264.913 163.580 262.737 170.149 M306.709 170.451 L 304.365 177.315 305.946 177.315 L 307.527 177.315 309.034 172.795 C 310.880 167.254,311.740 166.263,314.387 166.626 C 316.712 166.945,319.283 164.904,317.655 164.033 C 316.441 163.383,314.419 163.474,312.926 164.246 C 311.744 164.857,311.658 164.857,311.893 164.246 C 312.099 163.708,311.850 163.580,310.601 163.584 L 309.053 163.588 306.709 170.451 M321.456 164.636 C 317.313 167.119,315.266 175.477,318.404 177.100 C 323.313 179.638,329.657 173.874,329.657 166.875 C 329.657 163.622,325.184 162.401,321.456 164.636 M347.437 168.281 C 344.947 175.846,345.524 178.176,349.734 177.561 C 350.710 177.419,352.447 177.313,353.594 177.327 L 355.678 177.352 357.860 170.764 C 360.447 162.953,360.381 163.580,358.619 163.580 C 357.207 163.580,357.188 163.604,356.057 167.014 C 353.790 173.850,352.566 175.408,350.083 174.620 C 348.861 174.232,348.975 172.990,350.676 168.101 C 351.478 165.799,352.133 163.840,352.133 163.747 C 352.133 163.655,351.425 163.580,350.559 163.580 L 348.984 163.580 347.437 168.281 M366.077 164.171 C 360.633 166.608,358.501 176.390,363.158 177.559 C 365.328 178.104,370.447 176.531,370.447 175.320 C 370.447 173.921,369.312 173.421,367.782 174.147 C 364.497 175.706,362.982 174.232,364.198 170.660 C 365.423 167.063,368.463 165.322,370.423 167.095 C 371.102 167.710,373.777 166.557,373.777 165.650 C 373.777 163.919,368.784 162.959,366.077 164.171 M387.126 164.309 C 382.453 166.692,382.715 171.186,387.558 171.734 C 390.439 172.060,391.124 172.830,389.617 174.050 C 388.404 175.033,386.001 175.034,384.391 174.052 C 383.065 173.243,380.853 174.138,380.853 175.483 C 380.853 178.088,389.099 178.327,391.738 175.798 C 395.207 172.475,394.291 169.590,389.594 169.047 C 387.676 168.825,387.305 168.648,387.305 167.956 C 387.305 166.440,389.425 165.821,391.767 166.653 C 393.878 167.403,395.790 166.779,395.825 165.327 C 395.863 163.732,389.677 163.008,387.126 164.309 M33.092 166.651 C 35.756 168.599,30.308 176.206,27.515 174.437 C 26.204 173.607,28.588 167.526,30.562 166.667 C 32.176 165.964,32.153 165.964,33.092 166.651 M103.746 167.425 C 104.259 168.950,103.597 169.407,100.873 169.407 C 98.451 169.407,98.238 169.338,98.594 168.674 C 99.857 166.314,103.107 165.526,103.746 167.425 M117.136 166.330 C 118.514 166.859,116.881 173.057,115.047 174.259 C 113.205 175.466,111.754 174.860,111.790 172.900 C 111.860 169.102,114.834 165.447,117.136 166.330 M204.545 166.330 C 205.863 166.836,204.550 172.525,202.736 174.166 C 201.146 175.605,199.162 174.894,199.199 172.900 C 199.269 169.102,202.243 165.447,204.545 166.330 M219.771 168.173 L 219.771 169.407 217.066 169.407 C 214.042 169.407,213.860 169.202,215.505 167.652 C 217.581 165.697,219.771 165.964,219.771 168.173 M256.826 167.345 C 257.641 168.867,256.915 169.407,254.051 169.407 C 251.625 169.407,251.412 169.338,251.768 168.674 C 253.047 166.283,255.862 165.543,256.826 167.345 M340.281 166.657 C 342.019 167.929,338.697 174.818,336.346 174.818 C 332.495 174.818,335.213 166.681,339.254 166.110 C 339.382 166.092,339.844 166.338,340.281 166.657 M326.282 167.242 C 326.985 168.556,325.115 173.171,323.496 174.117 C 320.610 175.802,319.287 174.238,320.519 170.598 C 321.704 167.097,325.135 165.099,326.282 167.242 M59.747 172.633 C 59.349 174.258,58.622 174.854,56.769 175.075 C 54.565 175.338,53.813 174.789,54.337 173.299 C 55.063 171.237,60.246 170.598,59.747 172.633 M160.534 172.841 C 159.664 174.976,157.131 175.881,155.455 174.655 C 153.557 173.267,155.544 171.665,159.314 171.545 L 161.085 171.488 160.534 172.841 M189.606 172.630 C 189.090 174.685,187.024 175.730,184.844 175.037 C 182.292 174.228,184.874 171.591,188.287 171.521 C 189.835 171.489,189.882 171.529,189.606 172.630 " stroke="none" fill="#00366b" fill-rule="evenodd"></path></g></svg>